<svg xmlns="http://www.w3.org/2000/svg" width="51" height="56" viewBox="0 0 51 56">
  <g id="Group_221143" data-name="Group 221143" transform="translate(-140 -941)">
    <rect id="Rectangle_49099" data-name="Rectangle 49099" width="51" height="56" rx="8" transform="translate(140 941)" fill="#fce2e8"/>
    <g id="noun-custom-4241194" transform="translate(146.012 948.921)">
      <path id="Path_297905" data-name="Path 297905" d="M25.139,19.422l1.772-1.866a6.142,6.142,0,0,0,7.01-1.306c2.012-2.012,2.372-5.477,1.852-7.823a.512.512,0,0,0-.866-.253l-4.451,4.465a.442.442,0,0,1-.333.133.526.526,0,0,1-.333-.133l-2.266-2.279a.467.467,0,0,1,0-.666L32,5.188a.515.515,0,0,0-.24-.866c-2.4-.56-5.9-.227-7.93,1.8a6.137,6.137,0,0,0-1.319,7.01l-1.906,1.733L11.892,6.108a.59.59,0,0,0-.267-.147L4.6,4.655a.54.54,0,0,0-.48.147.525.525,0,0,0-.12.48l1.719,6.637a.533.533,0,0,0,.133.24l8.5,8.543L9.32,24.846a.5.5,0,0,0-.067.72.522.522,0,0,0,.733.067l5.1-4.211,3.918,3.945-8.463,9.182c-.2.16-1.866,1.319-4.145-.96-2.212-2.239-.986-3.851-.826-4.025l1.679-1.506a.519.519,0,0,0-.693-.773L4.842,28.8l-.04.04c-.76.826-1.573,3.039.84,5.464a4.928,4.928,0,0,0,3.465,1.706,3.421,3.421,0,0,0,2.106-.706l.04-.04L19.715,26.1l8.649,8.7a4.2,4.2,0,0,0,3.012,1.253h0A4.2,4.2,0,0,0,34.388,34.8a4.287,4.287,0,0,0,0-6.05Zm-1.653-5.784a.529.529,0,0,0,.12-.613,5.208,5.208,0,0,1,.946-6.2,7.474,7.474,0,0,1,6.01-1.679l-3.785,3.8a1.5,1.5,0,0,0,0,2.119l2.266,2.279a1.49,1.49,0,0,0,1.066.44h0a1.537,1.537,0,0,0,1.066-.44L34.908,9.6a7.563,7.563,0,0,1-1.733,5.9A5.133,5.133,0,0,1,27,16.45a.531.531,0,0,0-.6.107l-2.012,2.106-3.065-3.079Zm10.2,20.43a3.207,3.207,0,0,1-2.279.946h0a3.184,3.184,0,0,1-2.279-.946L6.695,11.519,5.2,5.815l6.064,1.133L33.682,29.483A3.242,3.242,0,0,1,33.682,34.068Z" transform="translate(0)" fill="#022b5c" stroke="#022b5c" stroke-width="1"/>
      <path id="Path_297906" data-name="Path 297906" d="M49.658,49.825a.518.518,0,1,0-.733.733l20,20.084a.5.5,0,0,0,.36.147.515.515,0,0,0,.36-.147.523.523,0,0,0,0-.733Z" transform="translate(-38.819 -39.519)" fill="#022b5c" stroke="#022b5c" stroke-width="1"/>
    </g>
  </g>
</svg>
