<svg xmlns="http://www.w3.org/2000/svg" width="51" height="56" viewBox="0 0 51 56">
  <g id="Group_221145" data-name="Group 221145" transform="translate(-719 -1062)">
    <rect id="Rectangle_49101" data-name="Rectangle 49101" width="51" height="56" rx="8" transform="translate(719 1062)" fill="#d5e8ff"/>
    <g id="noun-global-coverage-4285810" transform="translate(719.48 1064.98)">
      <path id="Path_297037" data-name="Path 297037" d="M25.019,9.019a16,16,0,1,0,16,16A16.018,16.018,0,0,0,25.019,9.019Zm0,10.254h-.008a1.974,1.974,0,0,1-1.951-1.79c-.005-.057-.007-.114-.007-.171a1.964,1.964,0,0,1,1.954-1.961h.017a1.961,1.961,0,0,1,0,3.922Zm-.59-9.025v3.987a3.137,3.137,0,0,0-2.514,2.646,28.224,28.224,0,0,0-2.953.449C20.136,13.416,22.151,10.656,24.434,10.248Zm-2.455,7.8a3.164,3.164,0,0,0,2.455,2.337v4.046H17.9a27.725,27.725,0,0,1,.72-5.826A26.486,26.486,0,0,1,21.978,18.051Zm2.455,14.08a29.622,29.622,0,0,1-3.188-.232,3.134,3.134,0,0,0-3.1-3.07,29.334,29.334,0,0,1-.237-3.224h6.526Zm-7.7-7.7H10.244c.4-2.272,3.13-4.306,7.079-5.481A29.791,29.791,0,0,0,16.733,24.434Zm0,1.171a30.533,30.533,0,0,0,.255,3.434A3.148,3.148,0,0,0,15.4,30.406c-2.956-1.229-4.817-2.973-5.149-4.8ZM18.115,30a1.962,1.962,0,1,1-1.962,1.962A1.964,1.964,0,0,1,18.115,30Zm2.933,3.055a30.568,30.568,0,0,0,3.386.248v6.487c-1.817-.33-3.553-2.173-4.782-5.1A3.151,3.151,0,0,0,21.048,33.053Zm4.557-.919V25.6H29.65a3.139,3.139,0,0,0,2.336,2.455,26.486,26.486,0,0,1-.556,3.354A27.762,27.762,0,0,1,25.6,32.134Zm5.48.581c-1.175,3.949-3.209,6.675-5.48,7.079V33.3A29.791,29.791,0,0,0,31.085,32.714Zm1.641-9.657a1.962,1.962,0,1,1-1.962,1.962A1.964,1.964,0,0,1,32.727,23.057Zm.431,5.061A3.137,3.137,0,0,0,35.8,25.6h3.988c-.408,2.282-3.169,4.3-7.082,5.467A28.231,28.231,0,0,0,33.158,28.118ZM35.8,24.434a3.137,3.137,0,0,0-2.645-2.514,28.282,28.282,0,0,0-.452-2.969c3.954,1.174,6.684,3.211,7.088,5.484Zm-3.816-2.456a3.139,3.139,0,0,0-2.336,2.456H25.6V20.388a3.139,3.139,0,0,0,2.456-2.337,26.518,26.518,0,0,1,3.367.56A26.443,26.443,0,0,1,31.987,21.978Zm-3.867-5.1A3.125,3.125,0,0,0,25.6,14.234V10.245c2.273.4,4.309,3.134,5.483,7.087A28.259,28.259,0,0,0,28.12,16.88ZM21.3,10.663a14.848,14.848,0,0,0-3.671,6.983,14.91,14.91,0,0,0-6.977,3.7A14.885,14.885,0,0,1,21.3,10.663ZM15.018,31.515a3.1,3.1,0,0,0-.036.445,3.11,3.11,0,0,0,3.558,3.1,12.489,12.489,0,0,0,2.774,4.318A14.883,14.883,0,0,1,10.66,28.725,12.533,12.533,0,0,0,15.018,31.515Zm17.375.893a14.851,14.851,0,0,0,6.983-3.67A14.883,14.883,0,0,1,28.7,39.385,14.9,14.9,0,0,0,32.392,32.407Zm0-14.765a14.916,14.916,0,0,0-3.7-6.99,14.882,14.882,0,0,1,10.69,10.689A14.917,14.917,0,0,0,32.4,17.642Z" fill="#022b5c"/>
    </g>
  </g>
</svg>
