<svg xmlns="http://www.w3.org/2000/svg" width="51" height="56" viewBox="0 0 51 56">
  <g id="Group_221146" data-name="Group 221146" transform="translate(-1009 -1062)">
    <rect id="Rectangle_49102" data-name="Rectangle 49102" width="51" height="56" rx="8" transform="translate(1009 1062)" fill="#fff6d3"/>
    <g id="noun-handling-6780289" transform="translate(1015.496 1070)">
      <path id="Path_297907" data-name="Path 297907" d="M33.1,12.723a2.083,2.083,0,0,0-1.9,2.223v4.7a1.857,1.857,0,0,0-1.984.495L25.2,24.166a2.4,2.4,0,0,0-.729,1.759v4.505h-.386A1.276,1.276,0,0,0,22.809,31.7v2.021A1.276,1.276,0,0,0,24.083,35h7.3a1.276,1.276,0,0,0,1.274-1.274V31.7a1.276,1.276,0,0,0-1.274-1.274H31V28.746a1.743,1.743,0,0,1,.384-1.152l2.947-3.608A3.037,3.037,0,0,0,35,22.014V14.946a2.083,2.083,0,0,0-1.9-2.223ZM31.753,31.7v2.021a.368.368,0,0,1-.367.367h-7.3a.368.368,0,0,1-.367-.367V31.7a.368.368,0,0,1,.367-.367h7.306a.368.368,0,0,1,.367.367Zm2.343-9.69a2.12,2.12,0,0,1-.468,1.4l-2.947,3.608a2.651,2.651,0,0,0-.589,1.725v1.685H25.374V25.926a1.515,1.515,0,0,1,.463-1.118l4.024-4.024a1,1,0,0,1,1.5.005.986.986,0,0,1-.007,1.484l-2.959,2.959a.453.453,0,1,0,.641.641l2.959-2.959a1.883,1.883,0,0,0,.121-2.642V14.948c0-.714.455-1.316.992-1.316s.992.6.992,1.316v7.068ZM13.924,30.431h-.386V25.926a2.407,2.407,0,0,0-.729-1.759L8.786,20.142A1.86,1.86,0,0,0,6.8,19.648v-4.7a2.083,2.083,0,0,0-1.9-2.223A2.083,2.083,0,0,0,3,14.947v7.068a3.03,3.03,0,0,0,.673,1.972l2.947,3.608a1.748,1.748,0,0,1,.384,1.152v1.685H6.621a1.276,1.276,0,0,0-1.274,1.274v2.021A1.276,1.276,0,0,0,6.621,35h7.3A1.276,1.276,0,0,0,15.2,33.726V31.705a1.276,1.276,0,0,0-1.274-1.274Zm-6.6-3.41L4.376,23.413a2.12,2.12,0,0,1-.468-1.4V14.946c0-.714.455-1.316.992-1.316s.992.6.992,1.316V20.27a1.883,1.883,0,0,0,.121,2.642l2.959,2.959a.453.453,0,0,0,.641-.641L6.654,22.271a.985.985,0,0,1-.007-1.484,1,1,0,0,1,1.5-.005l4.024,4.024a1.511,1.511,0,0,1,.463,1.118v4.505H7.912V28.744a2.651,2.651,0,0,0-.589-1.725Zm6.967,6.706a.368.368,0,0,1-.367.367H6.62a.368.368,0,0,1-.367-.367V31.7a.368.368,0,0,1,.367-.367h7.306a.368.368,0,0,1,.367.367v2.021ZM28.471,19.07V8.659a.452.452,0,0,0-.227-.392L19.23,3.061a.453.453,0,0,0-.453,0l-9.016,5.2a.452.452,0,0,0-.227.392V19.069a.452.452,0,0,0,.227.392l9.016,5.2a.462.462,0,0,0,.226.061.441.441,0,0,0,.226-.061l9.016-5.2a.452.452,0,0,0,.227-.392ZM19,13.341l-2.475-1.428,8.109-4.682,2.473,1.428L19,13.341Zm-3.8,1.6-1.34-.774L13.83,11.4l1.34.774Zm-.932-4.334,8.109-4.682,1.347.778-8.109,4.682ZM19,3.977l2.475,1.428-8.109,4.682L10.894,8.66ZM10.441,9.444l2.477,1.431.045,3.565a.452.452,0,0,0,.226.387l2.254,1.3a.462.462,0,0,0,.226.061.439.439,0,0,0,.229-.062.455.455,0,0,0,.225-.4L16.084,12.7l2.464,1.423v9.364L10.439,18.81V9.446Zm9.016,14.045V14.125l8.109-4.682v9.364Zm6.7-5.948a.454.454,0,0,1-.166.62l-2.254,1.3a.454.454,0,0,1-.453-.786l2.254-1.3a.454.454,0,0,1,.62.166Z" fill="#022b5c" stroke="#012a57" stroke-width="0.5"/>
    </g>
  </g>
</svg>
