<svg id="Group_220717" data-name="Group 220717" xmlns="http://www.w3.org/2000/svg" xmlns:xlink="http://www.w3.org/1999/xlink" width="440.699" height="436.512" viewBox="0 0 440.699 436.512">
  <defs>
    <clipPath id="clip-path">
      <rect id="Rectangle_86044" data-name="Rectangle 86044" width="440.699" height="436.512" fill="none"/>
    </clipPath>
    <clipPath id="clip-path-2">
      <rect id="Rectangle_86029" data-name="Rectangle 86029" width="440.699" height="436.513" transform="translate(0 -0.001)" fill="none"/>
    </clipPath>
    <clipPath id="clip-path-6">
      <rect id="Rectangle_86032" data-name="Rectangle 86032" width="18.772" height="18.773" transform="translate(68.987 303.329)" fill="none"/>
    </clipPath>
    <clipPath id="clip-path-7">
      <rect id="Rectangle_86033" data-name="Rectangle 86033" width="18.772" height="18.772" transform="translate(91.87 300.375)" fill="none"/>
    </clipPath>
  </defs>
  <g id="Group_220716" data-name="Group 220716" clip-path="url(#clip-path)">
    <g id="Group_220697" data-name="Group 220697">
      <g id="Group_220696" data-name="Group 220696" clip-path="url(#clip-path-2)">
        <path id="Path_297925" data-name="Path 297925" d="M236.648,256.754a28.141,28.141,0,0,1,6.631-3.484l.91-6.887,11.443-1.048,2.146,6.6a28.134,28.134,0,0,1,7.155,2.221l5.51-4.224,8.833,7.35-3.151,6.185a28.118,28.118,0,0,1,3.484,6.633l6.886.909,1.049,11.443-6.606,2.147a28.188,28.188,0,0,1-2.22,7.154l4.224,5.51-7.35,8.834-6.186-3.152a28.11,28.11,0,0,1-6.632,3.484l-.909,6.887-11.443,1.048-2.147-6.606a28.184,28.184,0,0,1-7.155-2.22l-5.51,4.224-8.833-7.35,3.152-6.186a28.1,28.1,0,0,1-3.485-6.632l-6.886-.909-1.049-11.443,6.606-2.147a28.167,28.167,0,0,1,2.221-7.154l-4.224-5.51,7.349-8.834Zm7.237,14.812a12.327,12.327,0,1,0,17.36-1.592,12.326,12.326,0,0,0-17.36,1.592" fill="#fff"/>
        <path id="Path_297926" data-name="Path 297926" d="M211.664,188.028a19.2,19.2,0,0,1,4.522-2.376l.62-4.7,7.8-.715,1.464,4.5a19.219,19.219,0,0,1,4.879,1.515l3.757-2.881,6.024,5.012-2.149,4.218a19.177,19.177,0,0,1,2.376,4.524l4.7.62.715,7.8-4.5,1.464a19.175,19.175,0,0,1-1.514,4.879l2.88,3.758-5.011,6.024L234,219.531a19.114,19.114,0,0,1-4.523,2.376l-.62,4.7-7.8.715-1.465-4.505a19.21,19.21,0,0,1-4.878-1.515l-3.758,2.881-6.024-5.012,2.149-4.218a19.226,19.226,0,0,1-2.376-4.523l-4.7-.62-.715-7.8,4.5-1.464a19.215,19.215,0,0,1,1.514-4.879l-2.88-3.757,5.012-6.024Zm4.935,10.1a8.406,8.406,0,1,0,11.839-1.085,8.406,8.406,0,0,0-11.839,1.085" fill="#fff"/>
        <path id="Path_297927" data-name="Path 297927" d="M153.794,238.882a12.643,12.643,0,0,1,2.975-1.564l.408-3.089,5.133-.47.963,2.963a12.657,12.657,0,0,1,3.21,1l2.471-1.9,3.963,3.3L171.5,241.9a12.585,12.585,0,0,1,1.563,2.975l3.089.409.471,5.133-2.963.963a12.663,12.663,0,0,1-1,3.209l1.894,2.472-3.3,3.962-2.774-1.413a12.645,12.645,0,0,1-2.976,1.563l-.408,3.089-5.133.47-.963-2.963a12.65,12.65,0,0,1-3.209-1l-2.472,1.895-3.962-3.3,1.413-2.774a12.639,12.639,0,0,1-1.563-2.975l-3.089-.408-.47-5.134,2.963-.963a12.663,12.663,0,0,1,1-3.209l-1.9-2.472,3.3-3.962Zm3.247,6.644a5.53,5.53,0,1,0,7.788-.714,5.53,5.53,0,0,0-7.788.714" fill="#fff"/>
        <path id="Path_297928" data-name="Path 297928" d="M373.936,223.625a148.02,148.02,0,0,1-262.213,94.214,147.215,147.215,0,0,1-33.4-82.668,149.376,149.376,0,0,1,3.765-46.716A147.95,147.95,0,0,1,208.781,76.567a149.822,149.822,0,0,1,46.741,1.99A148.044,148.044,0,0,1,372.21,200.863a149.145,149.145,0,0,1,1.726,22.762,1.876,1.876,0,0,0,3.75,0A151.7,151.7,0,1,0,256.319,372.349a150.914,150.914,0,0,0,43.333-16.035,152.424,152.424,0,0,0,62.179-65.083,150.734,150.734,0,0,0,14.057-44.254,155.778,155.778,0,0,0,1.8-23.352,1.876,1.876,0,0,0-3.75,0" fill="#e0e0e0"/>
        <path id="Path_297929" data-name="Path 297929" d="M400.859,128.108l1.165,2.361a1.1,1.1,0,0,0,.827.6l2.6.379a1.1,1.1,0,0,1,.608,1.872l-1.885,1.838a1.1,1.1,0,0,0-.316.971l.445,2.6a1.1,1.1,0,0,1-1.592,1.157l-2.33-1.225a1.1,1.1,0,0,0-1.022,0l-2.33,1.225a1.1,1.1,0,0,1-1.593-1.157l.445-2.6a1.1,1.1,0,0,0-.316-.971l-1.885-1.838a1.1,1.1,0,0,1,.609-1.872l2.6-.379a1.1,1.1,0,0,0,.826-.6l1.165-2.361a1.1,1.1,0,0,1,1.969,0" fill="#ebebeb"/>
        <path id="Path_297930" data-name="Path 297930" d="M418.441,128.108l1.165,2.361a1.1,1.1,0,0,0,.827.6l2.6.379a1.1,1.1,0,0,1,.608,1.872l-1.885,1.838a1.1,1.1,0,0,0-.316.971l.445,2.6a1.1,1.1,0,0,1-1.592,1.157l-2.331-1.225a1.1,1.1,0,0,0-1.021,0l-2.33,1.225a1.1,1.1,0,0,1-1.593-1.157l.445-2.6a1.1,1.1,0,0,0-.316-.971l-1.885-1.838a1.1,1.1,0,0,1,.609-1.872l2.6-.379a1.1,1.1,0,0,0,.826-.6l1.165-2.361a1.1,1.1,0,0,1,1.969,0" fill="#ebebeb"/>
        <path id="Path_297931" data-name="Path 297931" d="M383.276,128.108l1.165,2.361a1.1,1.1,0,0,0,.827.6l2.6.379a1.1,1.1,0,0,1,.608,1.872l-1.885,1.838a1.1,1.1,0,0,0-.316.971l.445,2.6a1.1,1.1,0,0,1-1.592,1.157l-2.331-1.225a1.1,1.1,0,0,0-1.021,0l-2.33,1.225a1.1,1.1,0,0,1-1.593-1.157l.445-2.6a1.1,1.1,0,0,0-.316-.971L376.1,133.32a1.1,1.1,0,0,1,.609-1.872l2.605-.379a1.1,1.1,0,0,0,.826-.6l1.165-2.361a1.1,1.1,0,0,1,1.969,0" fill="#ebebeb"/>
        <path id="Path_297932" data-name="Path 297932" d="M420.688,149.924c0-.04.608-.016,1.74-.191A11.994,11.994,0,0,0,427.077,148a12.159,12.159,0,0,0,4.913-5.982,12.785,12.785,0,0,0,.8-4.817q-.01-2.642-.023-5.573a12.337,12.337,0,0,0-1.53-5.776,12.191,12.191,0,0,0-4.543-4.586,12.445,12.445,0,0,0-6.723-1.6l-7.55.011-33.618.021a12.1,12.1,0,0,0-7.913,2.986,11.851,11.851,0,0,0-3.953,7.209,28.386,28.386,0,0,0-.154,4.132c.009,1.376-.026,2.757.019,4.09a11.983,11.983,0,0,0,8.785,11.138,12.609,12.609,0,0,0,3.515.453l3.5.007,12.784.032,18.51.083,5.032.049,1.309.025a2.827,2.827,0,0,1,.446.027,2.826,2.826,0,0,1-.446.027l-1.309.026-5.032.048-18.51.083-12.784.032-3.5.007a13.148,13.148,0,0,1-3.637-.457,12.448,12.448,0,0,1-9.16-11.562c-.048-1.37-.015-2.724-.027-4.108a28.786,28.786,0,0,1,.155-4.209,12.354,12.354,0,0,1,4.115-7.521,12.609,12.609,0,0,1,8.255-3.118l33.618.02,7.55.011a12.881,12.881,0,0,1,6.938,1.685,12.432,12.432,0,0,1,6.227,10.733q-.008,2.931-.015,5.576a13.029,13.029,0,0,1-.86,4.922,12.3,12.3,0,0,1-5.079,6.049,11.745,11.745,0,0,1-4.74,1.669,8.52,8.52,0,0,1-1.309.091,2.838,2.838,0,0,1-.446,0" fill="#ebebeb"/>
        <path id="Path_297933" data-name="Path 297933" d="M165.744,48.1l.49-6.339a24.244,24.244,0,1,1,6.3,5.977l.01.01Z" fill="#fff"/>
        <path id="Path_297934" data-name="Path 297934" d="M165.744,48.1s.137,0,.426-.005l1.294-.045,5.087-.208a.093.093,0,0,0,.065-.156l-.009-.01-.121.141a24.116,24.116,0,0,0,11.033,3.916,24.928,24.928,0,0,0,7.727-.493,24.347,24.347,0,0,0,8.08-3.488,24.863,24.863,0,0,0,6.834-6.918,23.849,23.849,0,0,0,3.773-9.814,24.96,24.96,0,0,0-.948-11.144,23.9,23.9,0,0,0-6.225-9.927,25.043,25.043,0,0,0-4.8-3.649c-.884-.46-1.762-.933-2.669-1.318l-1.381-.524-.688-.257-.709-.187a24.877,24.877,0,0,0-11.285-.513A23.8,23.8,0,0,0,171.5,7.75a24.9,24.9,0,0,0-6.628,7.221,24.433,24.433,0,0,0-3.1,8.3q-.132,1.038-.258,2.043c-.069.671-.051,1.336-.08,1.986a22.024,22.024,0,0,0,.256,3.742,24.1,24.1,0,0,0,4.471,10.782l-.017-.06L165.83,46.5c-.031.516-.054.917-.072,1.21a3.433,3.433,0,0,0-.014.4s.022-.152.05-.431c.028-.3.066-.7.116-1.229.1-1.088.235-2.657.414-4.672a.093.093,0,0,0-.017-.061,24.158,24.158,0,0,1-4.326-10.718,21.774,21.774,0,0,1-.228-3.7c.032-.641.018-1.3.09-1.958s.175-1.331.265-2.013a24.177,24.177,0,0,1,3.093-8.157,24.591,24.591,0,0,1,6.545-7.083,23.421,23.421,0,0,1,9.563-4.147,24.476,24.476,0,0,1,11.077.518l.7.184.675.253,1.355.515c.889.379,1.75.844,2.617,1.3a24.632,24.632,0,0,1,4.711,3.581,23.479,23.479,0,0,1,6.111,9.738,24.555,24.555,0,0,1,.946,10.938,23.469,23.469,0,0,1-3.686,9.649,24.537,24.537,0,0,1-6.7,6.828,24.064,24.064,0,0,1-7.943,3.471,24.741,24.741,0,0,1-7.622.532,24.166,24.166,0,0,1-10.957-3.776.094.094,0,0,0-.13.026.1.1,0,0,0,.009.115l.009.01.065-.156-5.024.314-1.315.09c-.3.022-.459.041-.459.041" fill="#e0e0e0"/>
        <path id="Path_297935" data-name="Path 297935" d="M192.783,27.485a3.081,3.081,0,1,0,3.081-3.081,3.081,3.081,0,0,0-3.081,3.081" fill="#e0e0e0"/>
        <path id="Path_297936" data-name="Path 297936" d="M182.414,27.485a3.081,3.081,0,1,0,3.081-3.081,3.081,3.081,0,0,0-3.081,3.081" fill="#e0e0e0"/>
        <path id="Path_297937" data-name="Path 297937" d="M172.044,27.485a3.081,3.081,0,1,0,3.081-3.081,3.081,3.081,0,0,0-3.081,3.081" fill="#e0e0e0"/>
        <path id="Path_297938" data-name="Path 297938" d="M8.225,243.591a3.97,3.97,0,0,1,.808-2.243,3.811,3.811,0,0,1,1.861-1.407,3.08,3.08,0,0,1,3.524,1.252,3.1,3.1,0,0,1,.817-1.075,3.132,3.132,0,0,1,2.349-.7,3.814,3.814,0,0,1,2.1,1.028,3.965,3.965,0,0,1,1.22,2.048,4.827,4.827,0,0,1-.314,3.014,6.833,6.833,0,0,1-2.132,2.42c-1.442,1.069-3.347,2.418-3.347,2.418s-1.826-1.111-3.446-1.886a6.831,6.831,0,0,1-2.553-1.97,4.828,4.828,0,0,1-.882-2.9" fill="#ebebeb"/>
        <path id="Path_297939" data-name="Path 297939" d="M19.3,222.179a9.7,9.7,0,0,1,1.976-5.486,9.33,9.33,0,0,1,4.554-3.444,7.528,7.528,0,0,1,8.62,3.064,7.522,7.522,0,0,1,7.745-4.34,9.318,9.318,0,0,1,5.126,2.514A9.7,9.7,0,0,1,50.3,219.5a11.808,11.808,0,0,1-.767,7.374,16.736,16.736,0,0,1-5.217,5.921c-3.528,2.615-8.188,5.914-8.188,5.914s-4.467-2.717-8.429-4.614a16.692,16.692,0,0,1-6.247-4.819,11.806,11.806,0,0,1-2.157-7.094" fill="#ebebeb"/>
        <path id="Path_297940" data-name="Path 297940" d="M431.186,300.734A28.935,28.935,0,1,1,402.251,271.8a28.935,28.935,0,0,1,28.935,28.935" fill="#e0e0e0"/>
        <path id="Path_297941" data-name="Path 297941" d="M431.186,297.539A28.935,28.935,0,1,1,402.251,268.6a28.935,28.935,0,0,1,28.935,28.935" fill="#a43ffd"/>
        <path id="Path_297942" data-name="Path 297942" d="M421.632,297.539a19.381,19.381,0,1,1-19.381-19.381,19.381,19.381,0,0,1,19.381,19.381" fill="#fff"/>
        <path id="Path_297943" data-name="Path 297943" d="M411.736,297.539a9.484,9.484,0,1,1-9.484-9.484,9.484,9.484,0,0,1,9.484,9.484" fill="#ebebeb"/>
        <path id="Path_297944" data-name="Path 297944" d="M422.419,276.356l-.786-6.173,6.283-6.725.453,6.662Z" fill="#ebebeb"/>
        <path id="Path_297945" data-name="Path 297945" d="M435.906,271.444l-6.375-.519-6.39,6.147,6.392.683Z" fill="#ebebeb"/>
        <path id="Path_297946" data-name="Path 297946" d="M428.627,269.187l-9.008,9.01q-7.145,7.146-14.29,14.293l-3.284,3.286a1.143,1.143,0,0,0,1.626,1.605l9.008-9.009q7.145-7.148,14.29-14.293l3.284-3.286c1.042-1.041-.584-2.648-1.626-1.606" fill="#e0e0e0"/>
        <path id="Path_297947" data-name="Path 297947" d="M422.083,42.159H418.7l-7.39-10.3V25.1s-5.234-.322-4.618,8.529-.05,6.6-.05,6.6-11.114.043-12.037,1.009c-.672.7-.976,11.74-1.092,17.728a6.481,6.481,0,0,0,4.594,6.529,4.832,4.832,0,0,0,1.2.161c2.772,0,16.935-2.254,16.935-2.254h5.849Z" fill="#f5f5f5"/>
        <path id="Path_297948" data-name="Path 297948" d="M431.777,40.3l-2.083,23.16h-5.8V40.77Z" fill="#f5f5f5"/>
        <path id="Path_297949" data-name="Path 297949" d="M380.176,26.119l1.387-1.415,7.33,1.132,2.824,2.769s2.279-2.055-1.671-5.424-2.736-2.723-2.736-2.723,4.535-4.661,4.51-5.442c-.018-.568-4.506-5.218-6.96-7.719a3.792,3.792,0,0,0-4.61-.755,2.835,2.835,0,0,0-.557.433c-1.135,1.158-5.995,8-5.995,8l-2.4,2.443Z" fill="#f5f5f5"/>
        <path id="Path_297950" data-name="Path 297950" d="M376.98,30.929l-8.823-10.358,2.375-2.422,9.482,9.3Z" fill="#f5f5f5"/>
      </g>
    </g>
    <g id="Group_220699" data-name="Group 220699">
      <g id="Group_220698" data-name="Group 220698" clip-path="url(#clip-path-2)">
        <path id="Path_297951" data-name="Path 297951" d="M329.222,214.871c-3.7,3.3-4.07,6.27-4.076,7.841,0,.46.133,1.032.583,1.132a1.106,1.106,0,0,0,.647-.125l12.937-5.365" fill="#263238"/>
        <path id="Path_297952" data-name="Path 297952" d="M371.191,263.269a107.431,107.431,0,0,0,6.382-17.415c1.457-6.017,1.887-12.394.3-18.377-.24-.907-2.447-7.049-3.386-7.047-.67,0,.509,5.646.118,6.191-3.739,5.2-5.25,11.733-5.352,18.134a83.918,83.918,0,0,0,1.941,18.514" fill="#263238"/>
        <path id="Path_297953" data-name="Path 297953" d="M368.074,296.591l6-56.772c1.994-15.4-5.3-29.392-20.75-30.959l-1.436-.062a27.756,27.756,0,0,0-28.737,24.312c-1.654,13.355-3.311,28.133-3.53,35.326-.454,14.891,14.334,17.844,14.334,17.844.033,0-1.229,15.1-1.6,19.458l22.463.639,5.386-.047Z" fill="#ffc09d"/>
        <path id="Path_297954" data-name="Path 297954" d="M333.952,286.279a35.993,35.993,0,0,0,19.625-4.9s-5.142,10.99-19.936,9.015Z" fill="#ff9b6c"/>
        <path id="Path_297955" data-name="Path 297955" d="M327.73,246.815a2.128,2.128,0,0,0,1.959,2.232,2.034,2.034,0,0,0,2.272-1.823,2.128,2.128,0,0,0-1.956-2.233,2.037,2.037,0,0,0-2.275,1.824" fill="#263238"/>
        <path id="Path_297956" data-name="Path 297956" d="M326.032,239.819c.252.288,1.913-.835,4.2-.73,2.286.07,3.914,1.319,4.174,1.05.127-.119-.12-.631-.828-1.2a5.84,5.84,0,0,0-3.327-1.183,5.6,5.6,0,0,0-3.358.928c-.726.509-.986,1-.861,1.13" fill="#263238"/>
        <path id="Path_297957" data-name="Path 297957" d="M347.007,248.01a2.127,2.127,0,0,0,1.958,2.232,2.034,2.034,0,0,0,2.273-1.822,2.129,2.129,0,0,0-1.956-2.234,2.037,2.037,0,0,0-2.275,1.824" fill="#263238"/>
        <path id="Path_297958" data-name="Path 297958" d="M348.43,241.309c.252.288,1.915-.834,4.2-.73,2.285.071,3.914,1.32,4.174,1.05.127-.119-.117-.63-.829-1.194a5.837,5.837,0,0,0-3.326-1.184,5.625,5.625,0,0,0-3.358.927c-.725.51-.986,1-.862,1.131" fill="#263238"/>
        <path id="Path_297959" data-name="Path 297959" d="M339.472,258.533a15.13,15.13,0,0,0-3.686-.829c-.582-.085-1.13-.225-1.211-.628a2.984,2.984,0,0,1,.464-1.715q.915-2.085,1.918-4.373c2.67-6.23,4.629-11.361,4.377-11.467s-2.62,4.858-5.29,11.088c-.644,1.537-1.26,3-1.846,4.4a3.383,3.383,0,0,0-.4,2.279,1.469,1.469,0,0,0,.924.9,4,4,0,0,0,.986.181,14.858,14.858,0,0,0,3.765.166" fill="#263238"/>
        <path id="Path_297960" data-name="Path 297960" d="M348,234.123c.286.6,2.531.078,5.236.136,2.706,0,4.939.572,5.238-.018.132-.281-.3-.827-1.232-1.34a9.1,9.1,0,0,0-7.98-.09c-.942.492-1.388,1.028-1.262,1.312" fill="#263238"/>
        <path id="Path_297961" data-name="Path 297961" d="M325.684,233.6c.445.546,2.337.115,4.577.219,2.241.038,4.112.588,4.579.07.206-.253-.061-.79-.861-1.329a7.205,7.205,0,0,0-3.669-1.065,7.105,7.105,0,0,0-3.709.832c-.821.488-1.112,1.008-.917,1.273" fill="#263238"/>
        <path id="Path_297962" data-name="Path 297962" d="M372.384,250.787c.259-.1,10.356-2.587,9.6,7.575s-10.806,7.3-10.8,7.009,1.206-14.584,1.206-14.584" fill="#ffc09d"/>
        <path id="Path_297963" data-name="Path 297963" d="M374.57,261.754c.047-.029.168.137.457.3a1.773,1.773,0,0,0,1.321.127c1.1-.314,2.134-1.951,2.321-3.779a5.863,5.863,0,0,0-.306-2.571,2.052,2.052,0,0,0-1.23-1.458.9.9,0,0,0-1.081.407c-.157.274-.108.481-.163.495-.031.023-.206-.187-.092-.6a1.129,1.129,0,0,1,.447-.606,1.34,1.34,0,0,1,1-.186,2.5,2.5,0,0,1,1.732,1.714,6.025,6.025,0,0,1,.4,2.878c-.218,2.043-1.409,3.881-2.91,4.2a1.9,1.9,0,0,1-1.6-.39c-.3-.275-.333-.505-.3-.521" fill="#ff9b6c"/>
        <path id="Path_297964" data-name="Path 297964" d="M331.127,216.839c-1.567-1.044,3.81-5.954,8-7.448,6.336-2.258,15.8-3.183,21.294-1.116,6.615,2.489,11.962,6.332,14.847,12.784a40.081,40.081,0,0,1,2.775,20.768,12.163,12.163,0,0,1-1.95,6.084c-1.606,2.126-3.727,3.066-4.586,6.419a5.649,5.649,0,0,1-1.314,3.012c-2.024,1.821-4.141-.226-5.03-2.176-1.9-4.164-1.75-8.933-1.565-13.506.132-3.251.278-6.57,1.451-9.6.639-1.651,1.571-3.183,2.117-4.867a6.123,6.123,0,0,0-.3-5.13,6.414,6.414,0,0,0-.755-.9,10.627,10.627,0,0,0-10.339-2.879c-5.887,1.544-15.906,3.748-18.294,1.594-3.435-3.1-4.16-4.993-4.16-4.993Z" fill="#263238"/>
        <path id="Path_297965" data-name="Path 297965" d="M379.472,250.949c.206-.158.5-.169.693-.327,12.947-10.413,4.338-22.194,4.466-25.592.178-4.709,5.446-4.6,4.107-10.16-.9-3.746-4.385-6.6-14.832-11.012-4.376-1.85-15.374-3.222-25.221-2-8.787,1.09-15.058,6.743-18.717,11.185a7.354,7.354,0,0,0-2.655,1.668c-1.749,2.687-1.159,3.9-1.159,3.9s19.907-8.321,34.808,6.043,11.079,25.355,15.286,25.846Z" fill="#455a64"/>
        <path id="Path_297966" data-name="Path 297966" d="M381.958,220.79a28.71,28.71,0,0,1,1.848,3.186c.249.462.427.9.6,1.282s.312.712.417.987a5.362,5.362,0,0,0,.366.84,5.438,5.438,0,0,0-.258-.88c-.089-.282-.207-.624-.372-1.01s-.327-.838-.566-1.31a26.026,26.026,0,0,0-1.809-3.246,26.935,26.935,0,0,0-6.175-6.644,26.134,26.134,0,0,0-3.1-2.042c-.453-.273-.89-.471-1.265-.66s-.706-.335-.981-.444a5.32,5.32,0,0,0-.859-.322,5.515,5.515,0,0,0,.812.426c.266.125.589.282.953.488s.792.411,1.235.693a28.8,28.8,0,0,1,3.042,2.076,31.142,31.142,0,0,1,3.319,3.046" fill="#263238"/>
        <path id="Path_297967" data-name="Path 297967" d="M329.429,213.272a.845.845,0,0,0,.184-.048l.528-.168c.462-.158,1.15-.364,2.037-.627.892-.242,1.985-.538,3.275-.785a34.088,34.088,0,0,1,4.414-.6,34.821,34.821,0,0,1,11.488,1.09,35.819,35.819,0,0,1,12.662,6.2,34.5,34.5,0,0,1,5.3,5.061,36.186,36.186,0,0,1,3.853,5.643,50.086,50.086,0,0,1,4.29,10.756c.883,3.188,1.392,5.821,1.736,7.639.161.9.288,1.6.377,2.1.042.227.076.407.1.545a.1.1,0,1,0,.029,0c-.018-.14-.042-.321-.072-.55-.065-.484-.169-1.2-.323-2.109-.309-1.826-.788-4.47-1.648-7.674a49.353,49.353,0,0,0-4.252-10.833,36.172,36.172,0,0,0-3.87-5.7,34.543,34.543,0,0,0-5.347-5.11,35.766,35.766,0,0,0-12.773-6.223,34.6,34.6,0,0,0-11.573-1.036,33.548,33.548,0,0,0-4.431.65c-1.292.263-2.385.577-3.275.836-.884.281-1.568.505-2.023.682l-.52.2a.953.953,0,0,0-.173.076" fill="#263238"/>
        <path id="Path_297968" data-name="Path 297968" d="M337.9,216.643a6.778,6.778,0,0,1,2.048-5.617,1.986,1.986,0,0,0-.751.556,5.373,5.373,0,0,0-1.513,4.152,1.981,1.981,0,0,0,.216.909" fill="#263238"/>
        <path id="Path_297969" data-name="Path 297969" d="M329.362,217.951a18.992,18.992,0,0,1-.06-2.408,19.068,19.068,0,0,1,.534-2.349,5.1,5.1,0,0,0-.474,4.757" fill="#263238"/>
        <path id="Path_297970" data-name="Path 297970" d="M323.924,207.454c2.457-2.649,6.755-3.112,10-1.521a12.243,12.243,0,0,1,6.2,8.448,5.311,5.311,0,0,1,6.435,2.5l4.279,1.211A17.876,17.876,0,0,1,348.26,223a6.037,6.037,0,0,1-4.8,2.4,3.7,3.7,0,0,1-3.55-3.547c-1.347,2.974-4.906,4.318-8.169,4.419-2.551.079-5.279-.506-7.059-2.334s-2.156-5.124-.288-6.862c-2.856-2.212-2.927-6.975-.471-9.625" fill="#263238"/>
        <path id="Path_297971" data-name="Path 297971" d="M337.429,263.347l.4-.251,5.974-.193a1.81,1.81,0,0,1,.948.142,1.5,1.5,0,0,1,.618.957,4.236,4.236,0,1,1-7.942-.655" fill="#ff9b6c"/>
        <path id="Path_297972" data-name="Path 297972" d="M241.449,355.724l6.786,3.1-6.868,14-5.415-6.138Z" fill="#ffc09d"/>
        <path id="Path_297973" data-name="Path 297973" d="M241.352,352.35c-.144-.25-6.4-10.179-9.931-13.9s-3.629-7.788-6.141-8.128-2.977,3.2-1.768,6.825,4.467,5.489,3.536,6.792-21.069-2.1-21.069-2.1-2.606-2.661-4.652-.428c0,0-3.247-.773-3,1.749.267,2.7,6.162,2.81,6.162,2.81l2.922,5.223,6.8,2.511a9.328,9.328,0,0,0,2.44,4.838,18.8,18.8,0,0,0,3.794,3.112c.279.051,6.326,3.773,9.4,4.517s7.164,1.4,7.164,1.4l5.582-11.165a7.866,7.866,0,0,0-1.233-4.056" fill="#ffc09d"/>
        <path id="Path_297974" data-name="Path 297974" d="M214.282,354.087a11.414,11.414,0,0,1-.763-4.653c.243-2.133,2.255-11.582,3.169-11.765s2.5-.731,2.926,1.829-1.036,8.614-1.036,8.757a13.345,13.345,0,0,1,1.114,4.1" fill="#ffc09d"/>
        <path id="Path_297975" data-name="Path 297975" d="M219.693,352.36c-.048,0-.092-.476-.3-1.31a13.143,13.143,0,0,0-.472-1.489c-.109-.284-.235-.582-.379-.9l-.11-.251a.578.578,0,0,1-.007-.37q.052-.275.108-.559a53.96,53.96,0,0,0,.816-5.357,9,9,0,0,0-.128-3.094,1.687,1.687,0,0,0-.815-1.145,2.566,2.566,0,0,0-1.547.043c-.107-.049-.238.227-.36.467s-.219.515-.313.782c-.19.533-.353,1.073-.506,1.606-.306,1.066-.567,2.108-.806,3.1-.47,1.989-.865,3.8-1.117,5.312a9.632,9.632,0,0,0,.226,3.578,12.022,12.022,0,0,1,.3,1.312,4.077,4.077,0,0,1-.518-1.254,8.932,8.932,0,0,1-.413-3.692c.206-1.552.559-3.366,1-5.376.227-1,.478-2.054.78-3.136.152-.541.315-1.09.509-1.644.1-.277.2-.555.333-.835a2.914,2.914,0,0,1,.236-.427,1.13,1.13,0,0,1,.2-.228.766.766,0,0,1,.22-.108l.106-.023a3.05,3.05,0,0,1,1.9,0,2.226,2.226,0,0,1,1.126,1.512,9.285,9.285,0,0,1,.114,3.3,45.8,45.8,0,0,1-.946,5.393c-.043.187-.086.372-.127.552-.019.124-.046.109-.019.161l.094.239c.132.325.248.64.345.936a10.8,10.8,0,0,1,.388,1.55,3.847,3.847,0,0,1,.083,1.356" fill="#ff9b6c"/>
        <path id="Path_297976" data-name="Path 297976" d="M235.952,356.445a23.372,23.372,0,0,0-3.091-.786,8.523,8.523,0,0,0-3.514.32,8.966,8.966,0,0,0-3.788,2.349l-.481.5.01-.681c.026-1.8.055-3.756.085-5.8v-.006l0-.023c.016-.2.034-.413.052-.628a9.272,9.272,0,0,0-.314-3.464,1.877,1.877,0,0,0-2.331-1.262,1.281,1.281,0,0,0-.544.353,1.329,1.329,0,0,0-.232.6c-.109.483-.189.972-.269,1.44-.142.933-.276,1.809-.4,2.623-.223,1.518-.411,2.794-.561,3.808a5.628,5.628,0,0,1-.29,1.387,8.359,8.359,0,0,1,.068-1.413c.074-.907.2-2.217.38-3.834.092-.809.2-1.694.333-2.644.07-.476.14-.965.246-1.477.023-.126.064-.263.1-.4a1.306,1.306,0,0,1,.23-.428,1.8,1.8,0,0,1,.764-.521,2.29,2.29,0,0,1,1.818.133,2.6,2.6,0,0,1,1.219,1.428,9.617,9.617,0,0,1,.362,3.7c-.02.227-.039.452-.056.662l0-.029c-.043,2.045-.085,4-.123,5.8l-.471-.182a9.2,9.2,0,0,1,4.064-2.429,8.517,8.517,0,0,1,3.688-.213,7.179,7.179,0,0,1,1.341.331,5.22,5.22,0,0,1,.954.37,3.109,3.109,0,0,1,.751.411" fill="#ff9b6c"/>
        <path id="Path_297977" data-name="Path 297977" d="M213.481,347.672a26.025,26.025,0,0,1-4.007-1.39l-.068-.027-.05-.081a16.444,16.444,0,0,0-1.7-2.164,22.315,22.315,0,0,0-2.272-2.254,4.014,4.014,0,0,0-2.087-.945,2.158,2.158,0,0,0-1.764.752l0-.293c.923,1.373,1.685,2.533,2.2,3.358a5.791,5.791,0,0,1,.751,1.346,5.78,5.78,0,0,1-1-1.174c-.591-.775-1.411-1.894-2.374-3.239l-.108-.151.11-.143a2.642,2.642,0,0,1,2.209-1.014,4.462,4.462,0,0,1,2.411,1.049,20.144,20.144,0,0,1,2.328,2.347,14.738,14.738,0,0,1,1.7,2.311l-.118-.108a25.984,25.984,0,0,1,3.831,1.82" fill="#ff9b6c"/>
        <path id="Path_297978" data-name="Path 297978" d="M297.889,339.841l-1.693.259-4.907.968-8.676,30.172-34.378-12.412L237,367.571s53.627,35.728,61.518,29.575,14.1-39.229,14.1-39.229c.089.215-14.736-18.076-14.736-18.076" fill="#ffc09d"/>
        <path id="Path_297979" data-name="Path 297979" d="M287.986,334.48c4.411-14.271,6.878-24.35,11.331-28.565,6-5.684,34.353-13.891,34.353-13.891s.787,7.754,14.4,8.3S368.4,288.368,368.4,288.368s14.661,3.709,24.545,6.546c9.738,2.8,15.964,6.01,20.078,12.448,5.318,8.324,13.659,46.732,13.659,46.732l-33.9,10.483,2.045,31.12,1.34,40.146-96.712.385c0-7.053,6.3-75.947,6.3-75.947l-23.864-5.644s2.192-7.513,6.1-20.157" fill="#ff725e"/>
        <path id="Path_297980" data-name="Path 297980" d="M307.9,320.926a1.96,1.96,0,0,0-.072.4c-.037.3-.085.677-.145,1.15-.122,1-.268,2.447-.427,4.239-.317,3.584-.63,8.546-.806,14.032s-.211,10.457-.2,14.054c.014,1.769.025,3.214.033,4.259.011.476.021.86.028,1.158a1.955,1.955,0,0,0,.031.4,1.936,1.936,0,0,0,.033-.4c.008-.3.019-.682.032-1.158.017-1.044.04-2.489.068-4.258.051-3.6.121-8.562.3-14.045s.453-10.439.713-14.024c.135-1.764.246-3.2.325-4.245.035-.475.064-.858.086-1.155a1.92,1.92,0,0,0,.008-.4" fill="#263238"/>
        <path id="Path_297981" data-name="Path 297981" d="M351.138,408.2,393.5,385.324l-.724-20.748,26.742-8.128s2.455,31.115-1.468,44.619-64.073,20.488-64.073,20.488Z" fill="#ffc09d"/>
        <path id="Path_297982" data-name="Path 297982" d="M343.078,402.086l-4.112-2.456a3.741,3.741,0,0,0-2.217,0l-9.991,3.118a6.55,6.55,0,0,0-3.874,4.123l-1.924,7.258s-1.272,4.954-.669,5.9a1.914,1.914,0,0,0,2.473.654s.9,1.874,1.672,2.09a3.205,3.205,0,0,0,2.491-.525,2.158,2.158,0,0,0,2.319.647,2.515,2.515,0,0,0,.5-.242c1.1-.7.988-3.163.988-3.163l4.845-2.371s8.706,2.858,12.188,5.35,9.571-1.853,9.571-1.853l-.846-12.824Z" fill="#ffc09d"/>
        <path id="Path_297983" data-name="Path 297983" d="M402.438,393.538c-.159.1-1.343-2.487-3.844-4.786s-5.178-3.259-5.093-3.428a5.066,5.066,0,0,1,1.741.588,14.19,14.19,0,0,1,6.466,5.939,5.1,5.1,0,0,1,.73,1.687" fill="#ff9b6c"/>
        <path id="Path_297984" data-name="Path 297984" d="M426.677,354.094a3.419,3.419,0,0,1-.643.255l-1.875.636-6.926,2.246-22.906,7.222-2.064.643-.315.1-.021-.331c-.286-4.42-.846-8.6-1.267-12.389-.437-3.791-.794-7.2-1.026-10.054s-.35-5.168-.4-6.762c-.023-.8-.025-1.415-.026-1.834a3.141,3.141,0,0,1,.026-.638,2.993,2.993,0,0,1,.076.635c.03.469.07,1.075.119,1.828.111,1.588.28,3.89.562,6.738s.672,6.245,1.136,10.031,1.026,7.962,1.319,12.415l-.336-.233,2.063-.644,22.952-7.076,6.974-2.088,1.9-.543a3.5,3.5,0,0,1,.674-.155" fill="#263238"/>
        <path id="Path_297985" data-name="Path 297985" d="M338.586,268.957a6.453,6.453,0,0,0,2.741.326,4.434,4.434,0,0,0,2.588-1.3,4.621,4.621,0,0,0,1.281-3.256,2.1,2.1,0,0,0-.536-1.587c-.382-.294-1.026-.148-1.6-.106l-3.084.274a15.57,15.57,0,0,1-2.856.122,15.5,15.5,0,0,1,2.817-.488l3.072-.385c.291-.031.578-.078.909-.093a1.62,1.62,0,0,1,1.047.266,2.518,2.518,0,0,1,.753,1.987,4.991,4.991,0,0,1-1.459,3.6,4.661,4.661,0,0,1-2.887,1.326,4.568,4.568,0,0,1-2.113-.295c-.468-.193-.686-.372-.671-.4" fill="#263238"/>
        <path id="Path_297986" data-name="Path 297986" d="M336.949,411.814c.007.089-.936.135-2.364.567a11.759,11.759,0,0,0-7.917,7.815c-.452,1.422-.509,2.364-.6,2.356a5.812,5.812,0,0,1,.244-2.458,11.121,11.121,0,0,1,8.174-8.068,5.823,5.823,0,0,1,2.461-.212" fill="#ff9b6c"/>
        <path id="Path_297987" data-name="Path 297987" d="M333.822,406.041a10.644,10.644,0,0,0-2.816.672,8.884,8.884,0,0,0-2.577,1.736,12.2,12.2,0,0,0-2.263,3.081,43.377,43.377,0,0,0-2.5,6.611,11.872,11.872,0,0,1-1.113,2.743,27.4,27.4,0,0,1,.761-2.851,33.718,33.718,0,0,1,2.394-6.748A11.889,11.889,0,0,1,328.1,408.1a8.612,8.612,0,0,1,2.768-1.728,6.442,6.442,0,0,1,2.154-.425,1.845,1.845,0,0,1,.8.095" fill="#ff9b6c"/>
        <path id="Path_297988" data-name="Path 297988" d="M247.454,433.785l-25.11-65.945a3.792,3.792,0,0,1,3.544-5.141h80.633a3.793,3.793,0,0,1,3.434,2.184l23.781,65.53,50.631.49c2.094,0,4.179,0,4.179,2.1s-1.7,3.226-3.792,3.226H251a3.791,3.791,0,0,1-3.543-2.442" fill="#455a64"/>
        <path id="Path_297989" data-name="Path 297989" d="M281.586,399.463a5.29,5.29,0,1,1-5.291-5.29,5.291,5.291,0,0,1,5.291,5.29" fill="#fff"/>
        <path id="Path_297990" data-name="Path 297990" d="M409.11,436.252c0,.144-39.257.26-87.671.26-48.43,0-87.678-.116-87.678-.26s39.248-.26,87.678-.26c48.414,0,87.671.116,87.671.26" fill="#263238"/>
      </g>
    </g>
    <g id="Group_220701" data-name="Group 220701">
      <g id="Group_220700" data-name="Group 220700" clip-path="url(#clip-path-2)">
        <path id="Path_297991" data-name="Path 297991" d="M228.485,85.1A79.432,79.432,0,1,0,316.1,14.8,79.432,79.432,0,0,0,228.485,85.1" fill="#fff"/>
        <path id="Path_297992" data-name="Path 297992" d="M279.814,14.552a4.453,4.453,0,0,0-2.234,4.163,3.725,3.725,0,0,0-4.283.534,4.512,4.512,0,0,0-1.243,4.237,5.752,5.752,0,0,0,2.7,3.595A2.436,2.436,0,0,0,272.8,28.92a4.281,4.281,0,0,0,.339,2.783,7.2,7.2,0,0,0,7.8,4.028l5.75-20.048Z" fill="#263238"/>
        <path id="Path_297993" data-name="Path 297993" d="M294.189,92.962l.156-6.986s-14.308-1.418-15.27-15.591c-.465-6.846-.275-21.019.046-33.844a26.467,26.467,0,0,1,24.995-25.764l1.369-.076c14.8.043,23.037,12.64,22.585,27.437l-1.938,59.443-25.364,9.437Z" fill="#ae7461"/>
        <path id="Path_297994" data-name="Path 297994" d="M294.345,85.977a38.98,38.98,0,0,0,18.277-4.957s-.531,10.027-17.986,9.532Z" fill="#6f4439"/>
        <path id="Path_297995" data-name="Path 297995" d="M284.819,51.28a2.028,2.028,0,0,0,2.066,1.935,1.941,1.941,0,0,0,1.987-1.942,2.03,2.03,0,0,0-2.063-1.937,1.943,1.943,0,0,0-1.99,1.944" fill="#263238"/>
        <path id="Path_297996" data-name="Path 297996" d="M282.555,43.311c.266.25,1.737-.971,3.917-1.086,2.176-.146,3.838.886,4.059.607.11-.125-.173-.588-.9-1.056a5.564,5.564,0,0,0-3.268-.812,5.345,5.345,0,0,0-3.1,1.194c-.642.551-.842,1.042-.712,1.153" fill="#263238"/>
        <path id="Path_297997" data-name="Path 297997" d="M303.965,50.545a2.028,2.028,0,0,0,2.066,1.935,1.94,1.94,0,0,0,1.987-1.942,2.03,2.03,0,0,0-2.065-1.936,1.94,1.94,0,0,0-1.988,1.943" fill="#263238"/>
        <path id="Path_297998" data-name="Path 297998" d="M304,42.529c.266.25,1.293-1.123,3.471-1.239,2.175-.146,4.284,1.04,4.506.76.109-.125-.17-.587-.9-1.056a5.563,5.563,0,0,0-3.267-.812,5.351,5.351,0,0,0-3.1,1.194c-.64.551-.841,1.042-.712,1.153" fill="#263238"/>
        <path id="Path_297999" data-name="Path 297999" d="M296.988,59.132a14.394,14.394,0,0,0-3.575-.443c-.56-.026-1.093-.107-1.208-.483a2.848,2.848,0,0,1,.28-1.67q.674-2.062,1.411-4.329c1.951-6.161,3.33-11.214,3.081-11.29s-2.032,4.855-3.982,11.016q-.7,2.277-1.341,4.351a3.231,3.231,0,0,0-.167,2.2,1.4,1.4,0,0,0,.96.763,3.777,3.777,0,0,0,.953.079,14.237,14.237,0,0,0,3.588-.194" fill="#263238"/>
        <path id="Path_298000" data-name="Path 298000" d="M302.6,36.242c.3.556,2.415-.042,4.993-.112,2.577-.123,4.73.316,4.988-.26.113-.275-.325-.774-1.236-1.22a8.686,8.686,0,0,0-7.6.284c-.874.512-1.274,1.043-1.141,1.308" fill="#263238"/>
        <path id="Path_298001" data-name="Path 298001" d="M282.136,38.046c.482.442,2.081-.267,4.075-.527,1.985-.324,3.726-.107,4.054-.668.14-.271-.184-.733-.978-1.111a6.509,6.509,0,0,0-6.55.964c-.645.589-.816,1.124-.6,1.342" fill="#263238"/>
        <path id="Path_298002" data-name="Path 298002" d="M326.556,52.069a3.854,3.854,0,0,1,3.951-3.94c2.659.1,5.686,1.443,5.815,6.918.228,9.714-9.572,7.94-9.6,7.662-.016-.19-.111-6.574-.171-10.64" fill="#ae7461"/>
        <path id="Path_298003" data-name="Path 298003" d="M328.755,59c.042-.032.172.115.461.239a1.692,1.692,0,0,0,1.266,0c1.017-.4,1.843-2.05,1.849-3.8a5.588,5.588,0,0,0-.531-2.412,1.952,1.952,0,0,0-1.3-1.268.862.862,0,0,0-.988.487c-.124.275-.058.467-.109.485-.026.025-.212-.158-.143-.561a1.077,1.077,0,0,1,.368-.617,1.272,1.272,0,0,1,.93-.27,2.38,2.38,0,0,1,1.8,1.465,5.741,5.741,0,0,1,.65,2.693c-.016,1.959-.975,3.814-2.37,4.253a1.81,1.81,0,0,1-1.553-.221c-.307-.233-.363-.449-.33-.467" fill="#6f4439"/>
        <path id="Path_298004" data-name="Path 298004" d="M293.3,27.436c-.024,0-.045.01-.068.012-.058.008-.117.011-.174.021Z" fill="#ff725e"/>
        <path id="Path_298005" data-name="Path 298005" d="M336.484,34.167a3.313,3.313,0,0,0-1.6-2,4.457,4.457,0,0,0,.918-1.81,4.7,4.7,0,0,0-2.111-4.97,6.486,6.486,0,0,0-3.67-10.849,8.369,8.369,0,0,0-12.618-7.15,9.309,9.309,0,0,0-12.892-3.522C301.532,1.974,298.338.02,294.8,0s-7.321,2.779-6.97,6.294a15.4,15.4,0,0,0-7.744.058,8.117,8.117,0,0,0-5.479,5.15,5.576,5.576,0,0,0,2.8,6.589,6.553,6.553,0,0,0,.322,8.625,5.939,5.939,0,0,0,2.318,1.383,14.107,14.107,0,0,0,.075,1.862s.236-.655.652-1.643a6.485,6.485,0,0,0,5.582-1.339,6.906,6.906,0,0,0,11.712-4.486,5.872,5.872,0,0,0,9.4-2.646,8.151,8.151,0,0,0,8.747,1.757,6.856,6.856,0,0,0,2.683,4.747,40.166,40.166,0,0,0,.062,5.752c2.8,25.436,7.86,32.393,8.518,20.3.071-1.289,3.465-2.518,3.866-7.729a5.694,5.694,0,0,0,1.546-.575,4.31,4.31,0,0,0,2.124-2.678,3.244,3.244,0,0,0-.976-3.194,3.45,3.45,0,0,0,2.443-4.062" fill="#263238"/>
        <path id="Path_298006" data-name="Path 298006" d="M316.754,23.211c-.034.01-.007.3.2.8a4.738,4.738,0,0,0,1.414,1.8,4.836,4.836,0,0,0,3.3,1.046A5.212,5.212,0,0,0,325.5,24.8l-.562,0a5.979,5.979,0,0,0,1.955,1.72,6.2,6.2,0,0,0,5.194.388,5.887,5.887,0,0,0,3.091-2.933,5.8,5.8,0,0,0,.587-2.8,2.066,2.066,0,0,0-.232-1.019,7.622,7.622,0,0,1-.8,3.592,5.548,5.548,0,0,1-2.881,2.555,5.672,5.672,0,0,1-4.621-.4,5.418,5.418,0,0,1-1.731-1.5l-.284-.383-.278.381a4.684,4.684,0,0,1-3.312,1.855,4.5,4.5,0,0,1-2.99-.8,6.98,6.98,0,0,1-1.887-2.229" fill="#455a64"/>
        <path id="Path_298007" data-name="Path 298007" d="M296.518,65.424c.047.2,1.611-.006,3.519-.316s3.456-.619,3.437-.821-1.617-.212-3.554.106-3.448.839-3.4,1.031" fill="#263238"/>
        <path id="Path_298008" data-name="Path 298008" d="M265.947,98.8s-3.086.19-9.448,4.951-20.722,24.281-20.722,24.281c6.4,13.435,11.071,20.963,22.659,28.93l13.432-13.736s7.774-37.428,6.853-37.3S265.947,98.8,265.947,98.8" fill="#ff725e"/>
        <path id="Path_298009" data-name="Path 298009" d="M358.889,93.574c-9.009-3.99-32.415-6.5-32.415-6.5s-4.864,12.54-19,13.205c-8.7.409-15.036-8.692-15.036-8.692s-23.26,5.695-28.123,7.685c-3.774,26.828-4.644,33.215-1.2,60.486a78.7,78.7,0,0,0,36.437,13.042c25.21,2.171,51.958-7.519,68.608-28.421Z" fill="#ff725e"/>
        <path id="Path_298010" data-name="Path 298010" d="M258.436,115.861a11.057,11.057,0,0,1,.193,1.728c.092,1.2.215,2.791.364,4.717.306,3.983.769,9.48,1.413,15.539s1.353,11.533,1.893,15.491l.637,4.688a11.159,11.159,0,0,1,.176,1.729,10.9,10.9,0,0,1-.376-1.7c-.211-1.1-.486-2.692-.8-4.666-.633-3.948-1.4-9.421-2.046-15.49s-1.05-11.577-1.262-15.57c-.107-2-.174-3.613-.2-4.731a11.013,11.013,0,0,1,.01-1.738" fill="#263238"/>
        <path id="Path_298011" data-name="Path 298011" d="M304.18,106.424a108.781,108.781,0,0,1,.637-12.918c.816-5.068,9.517-17.305,9.517-17.305s-.2-4.622-5.193-1.457c-5.911,3.749-8.332,8.922-10.072,8.2s-13.213-9.341-15.877-8.612a2.887,2.887,0,0,0-1.714,4.572c.969,1.146,2.281,2.805,2.281,2.805s-5.807-1.013-3.742,5.107c0,0-7.156-3.1-5.219,5.423a3.567,3.567,0,0,0-1.147,4.662,74.3,74.3,0,0,0,6.26,8.6c1.8,2.176,5.065,10.127,5.065,10.127l3.284,13.388L310.082,121Z" fill="#ae7461"/>
        <path id="Path_298012" data-name="Path 298012" d="M283.652,81.72a32.778,32.778,0,0,0,3.166,2.171,32.929,32.929,0,0,0,3.221,2.09,24.537,24.537,0,0,0-6.387-4.261" fill="#6f4439"/>
        <path id="Path_298013" data-name="Path 298013" d="M279.722,86.441a9.531,9.531,0,0,0,4.221,4.023c.055-.088-1.028-.825-2.185-1.934s-1.951-2.149-2.036-2.089" fill="#6f4439"/>
        <path id="Path_298014" data-name="Path 298014" d="M274.491,91.916a15.5,15.5,0,0,0,3.246,3.316,15.434,15.434,0,0,0-3.246-3.316" fill="#6f4439"/>
        <path id="Path_298015" data-name="Path 298015" d="M346.865,126.337l-23.44,23.55-19.593-42.869-18.855,8.62S299.14,175.9,306.164,184.57s11,8.909,20.463,4.549,38.635-39.465,38.635-39.465Z" fill="#ae7461"/>
        <path id="Path_298016" data-name="Path 298016" d="M361.915,160.358s11.225-21.212,12.112-40.352a29.019,29.019,0,0,0-8.806-22.583,15.668,15.668,0,0,0-7.366-4.275,54.173,54.173,0,0,1-6.952,13.87c-4.634,6.392-22.157,33.743-22.157,33.743Z" fill="#ff725e"/>
        <path id="Path_298017" data-name="Path 298017" d="M284.977,115.638a3.012,3.012,0,0,1-.22-.443l-.6-1.312c-.525-1.149-1.286-2.845-2.364-4.957a21.706,21.706,0,0,0-2.018-3.343q-1.383-1.659-2.908-3.651c-1.007-1.332-2.072-2.76-3.066-4.372a3.746,3.746,0,0,1,.873-5.492l-.087.224a14.579,14.579,0,0,1-.33-2.473,7.976,7.976,0,0,1,.089-1.308,3.832,3.832,0,0,1,.521-1.272,2.893,2.893,0,0,1,2.478-1.193,7.442,7.442,0,0,1,2.763.557l-.32.294q-.137-.483-.274-.973c-.081-.33-.11-.678-.167-1.02a3.725,3.725,0,0,1,.416-2.114,2.889,2.889,0,0,1,1.833-1.234,5.887,5.887,0,0,1,2.2-.088l-.232.41-1.313-1.61-.665-.816a3.92,3.92,0,0,1-.626-.91,3.314,3.314,0,0,1-.228-2.261,2.975,2.975,0,0,1,1.438-1.811,4,4,0,0,1,1.109-.408,2.975,2.975,0,0,1,1.2.118,12.212,12.212,0,0,1,2.118.831c1.358.66,2.67,1.425,3.973,2.222,2.4,1.473,4.7,3.039,6.967,4.514a11.255,11.255,0,0,0,1.687.974c.463.136,1.044-.3,1.505-.721.951-.879,1.813-1.884,2.721-2.809a28.911,28.911,0,0,1,5.852-4.816,6.751,6.751,0,0,1,1.706-.754,2.933,2.933,0,0,1,1.885.021,2.641,2.641,0,0,1,1.365,1.265,4.773,4.773,0,0,1,.52,1.713l.01.082-.055.074a107.146,107.146,0,0,0-7.342,11.042,24,24,0,0,0-2.25,5.013,25.908,25.908,0,0,0-.536,4.646c-.142,2.841-.172,5.082-.237,6.61-.031.764-.061,1.349-.1,1.744a3.839,3.839,0,0,1-.089.594,5.733,5.733,0,0,1,.017-.6c.009-.426.02-1,.034-1.743.02-1.527.007-3.767.11-6.618a25.719,25.719,0,0,1,.49-4.715,24.078,24.078,0,0,1,2.236-5.112A104.8,104.8,0,0,1,314.374,76.5l-.045.155a3.043,3.043,0,0,0-1.6-2.577,3.959,3.959,0,0,0-3.18.711,28.592,28.592,0,0,0-5.734,4.75c-.9.921-1.746,1.916-2.743,2.84a5.387,5.387,0,0,1-.836.635,1.473,1.473,0,0,1-1.159.2,11.057,11.057,0,0,1-1.817-1.03c-2.281-1.481-4.566-3.04-6.96-4.5-1.294-.792-2.6-1.551-3.925-2.2a11.794,11.794,0,0,0-2.024-.8,2.523,2.523,0,0,0-.983-.109,3.579,3.579,0,0,0-.939.348,2.454,2.454,0,0,0-1.2,1.494,2.811,2.811,0,0,0,.192,1.909,3.575,3.575,0,0,0,.571.822l.657.809,1.3,1.6.4.495-.633-.084c-1.3-.172-2.862.01-3.534,1.088a4.717,4.717,0,0,0,.06,3.7l.158.487-.478-.192a7.014,7.014,0,0,0-2.566-.529,2.432,2.432,0,0,0-2.113.987,3.4,3.4,0,0,0-.455,1.1,7.611,7.611,0,0,0-.087,1.214,14.274,14.274,0,0,0,.3,2.384l.025.14-.112.084a3.737,3.737,0,0,0-1.508,2.348,3.78,3.78,0,0,0,.727,2.591c.966,1.593,2.017,3.028,3.008,4.364s1.956,2.557,2.861,3.67a21.368,21.368,0,0,1,2.007,3.422c1.05,2.136,1.775,3.849,2.264,5.016l.538,1.338a2.824,2.824,0,0,1,.16.468" fill="#6f4439"/>
        <path id="Path_298018" data-name="Path 298018" d="M330.256,162.725c-.141.06-1.55-3.044-3.6-6.705s-3.934-6.5-3.808-6.587a8.657,8.657,0,0,1,1.4,1.749,54.372,54.372,0,0,1,5.254,9.43,8.655,8.655,0,0,1,.75,2.113" fill="#6f4439"/>
        <path id="Path_298019" data-name="Path 298019" d="M344.375,117.2a2.416,2.416,0,0,1-.262.492l-.831,1.365-3.16,5.017c-2.753,4.285-6.535,10.172-10.811,16.83l-.082-.361,3.953,2.408c7.7,4.731,14.658,9.021,19.768,12l6.072,3.5,1.656.943a3.258,3.258,0,0,1,.562.359,3.146,3.146,0,0,1-.611-.266l-1.7-.858c-1.47-.764-3.581-1.9-6.159-3.357-5.162-2.9-12.16-7.149-19.856-11.879l-3.949-2.411-.228-.139.146-.222c4.333-6.62,8.166-12.474,10.955-16.736,1.371-2.054,2.484-3.722,3.292-4.931l.907-1.317a2.417,2.417,0,0,1,.342-.439" fill="#263238"/>
        <path id="Path_298020" data-name="Path 298020" d="M342.843,109.6a17.41,17.41,0,0,1-1.17,2.339,55.865,55.865,0,0,0-4.545,11.683,17.257,17.257,0,0,1-.718,2.515,10.51,10.51,0,0,1,.36-2.6,39.522,39.522,0,0,1,4.581-11.775,10.534,10.534,0,0,1,1.492-2.161" fill="#263238"/>
      </g>
    </g>
    <g id="Group_220709" data-name="Group 220709">
      <g id="Group_220708" data-name="Group 220708" clip-path="url(#clip-path-2)">
        <path id="Path_298021" data-name="Path 298021" d="M169,340.732c.309,47.194-37.321,85.237-84.362,84.361C38.051,424.226.273,387.324.273,340.732A84.362,84.362,0,0,1,84.634,256.37c46.592,0,84.057,37.771,84.362,84.362" fill="#fff"/>
        <path id="Path_298022" data-name="Path 298022" d="M23.564,333.627a9.392,9.392,0,0,1,.89-17.9,10.317,10.317,0,0,1,4.6-18.729c-3-1.888-4.32-5.835-3.65-9.314a13.814,13.814,0,0,1,5.978-8.464c7.965-5.472,20.149-3.337,25.779,4.517l11.293,77.2c-2.786,3.732-9.27,9.005-13.913,8.647a14.144,14.144,0,0,1-11.2-7.34,27.457,27.457,0,0,1-8.632-.459c-2.793-.757-5.457-2.586-6.46-5.3s.192-6.271,2.923-7.23c-3.412-1.406-7.013-2.96-9.114-5.994s-1.814-8.008,1.5-9.626" fill="#263238"/>
        <path id="Path_298023" data-name="Path 298023" d="M40.178,311.13a9.508,9.508,0,0,1-.932-12.155c-2.037-1.908-1.908-5.33-.475-7.724s3.849-4,6.185-5.528a12.8,12.8,0,0,1,13.4-11.414c2.568-5.3,9.436-7.076,15.266-6.268a15.08,15.08,0,0,0,4.285.3,24.494,24.494,0,0,0,3.034-.884c5.575-1.6,11.809,1.574,14.8,6.542a10.633,10.633,0,0,0,1.57,2.286,14.413,14.413,0,0,0,3.14,1.833,9.181,9.181,0,0,1,4.466,6.205c.417,2.2.058,4.643,1.283,6.512.614.937,1.576,1.625,2.093,2.619,1.5,2.88-1.411,6.476-.325,9.535.221.624.6,1.18.87,1.785a5.662,5.662,0,0,1,.234,3.968,8.117,8.117,0,0,0-.82,3,9.183,9.183,0,0,0,.8,2.23c.661,1.825-2.333,9.673-3.807,10.935l-48.5,7.567a9.172,9.172,0,0,1-8.17-6.783,3.357,3.357,0,0,0-.715-1.719,3.922,3.922,0,0,0-1.452-.667c-3.374-1.22-4.382-5.458-4.572-9.04a4.33,4.33,0,0,0-.245-1.478,5.478,5.478,0,0,0-1.413-1.652" fill="#263238"/>
        <path id="Path_298024" data-name="Path 298024" d="M42.182,294.607c5.4-10.544,14.143-17.826,25.683-20.512,6.511-1.514,9.507-.739,14.486-.482a21.1,21.1,0,0,1,13.433,5.246c4.353,4.014,8.294,8.71,10.164,14.329a50.794,50.794,0,0,1,2.616,16.66,66.9,66.9,0,0,1-4.641,21.349l-9.766,3.378c-8.271,2.078-16.66,4.17-25.187,4.017s-17.355-2.822-23.234-9c-8.168-8.583-8.958-24.441-3.554-34.985" fill="#263238"/>
        <path id="Path_298025" data-name="Path 298025" d="M55.585,291.617l18.392-12.326,5.386-.521c11.832-2.5,22.794,8.78,24.933,18.339,2.377,10.62,4.86,23.679,4.858,31.884,0,16.5-13.178,20.709-13.178,20.709l1.763,9.515c-1.258,8.931-18.528,13.239-27.976,5.385l-18.332-66.44a5.732,5.732,0,0,1,4.154-6.545" fill="#ae7461"/>
        <path id="Path_298026" data-name="Path 298026" d="M84.708,330.4a3.43,3.43,0,0,1,.715-2.321,3.509,3.509,0,0,1,4.11-1.133,4.7,4.7,0,0,1,2.674,3.938,4.272,4.272,0,0,1-2.616,2.377,5.336,5.336,0,0,1-.557.139,3.837,3.837,0,0,1-2.744-.457,3.418,3.418,0,0,1-1.582-2.543" fill="#6f4439"/>
        <path id="Path_298027" data-name="Path 298027" d="M102.592,310.269a2.089,2.089,0,0,1-1.66,2.4,2,2,0,0,1-2.423-1.523,2.091,2.091,0,0,1,1.658-2.4,2,2,0,0,1,2.425,1.524" fill="#263238"/>
        <path id="Path_298028" data-name="Path 298028" d="M101.837,303.2c-.213.31-1.96-.6-4.181-.241-2.223.325-3.672,1.727-3.956,1.493-.137-.1.047-.629.674-1.259a5.741,5.741,0,0,1,3.114-1.528,5.513,5.513,0,0,1,3.381.529c.766.415,1.075.866.968,1.006" fill="#263238"/>
        <path id="Path_298029" data-name="Path 298029" d="M91.438,323.457a14.905,14.905,0,0,1,3.5-1.223c.558-.149,1.078-.346,1.111-.748a2.918,2.918,0,0,0-.644-1.621q-1.126-1.932-2.362-4.053c-3.3-5.78-5.792-10.569-5.558-10.7s3.1,4.447,6.406,10.226q1.2,2.142,2.3,4.09a3.314,3.314,0,0,1,.648,2.179,1.444,1.444,0,0,1-.8.978,3.9,3.9,0,0,1-.942.286,14.633,14.633,0,0,1-3.655.585" fill="#263238"/>
        <path id="Path_298030" data-name="Path 298030" d="M96,349.68a41.454,41.454,0,0,1-22.466-2.332s7.368,10.7,23.238,6.639Z" fill="#6f4439"/>
        <path id="Path_298031" data-name="Path 298031" d="M85.145,326.029c.357-.078.745,2.332,3.08,3.716s4.858.712,4.931,1.046c.057.146-.5.559-1.578.76a6.077,6.077,0,0,1-4.1-.737,5.293,5.293,0,0,1-2.428-3.14c-.251-.993-.077-1.633.09-1.645" fill="#263238"/>
        <path id="Path_298032" data-name="Path 298032" d="M99.434,295.676c-.287.6-2.046.51-4.007.989-1.975.418-3.524,1.265-4.038.845-.232-.207-.1-.77.5-1.425a6.393,6.393,0,0,1,6.482-1.478c.822.331,1.181.78,1.06,1.069" fill="#263238"/>
        <path id="Path_298033" data-name="Path 298033" d="M78.429,314.594a2.09,2.09,0,0,0,2.385,1.679,2,2,0,0,0,1.749-2.265,2.089,2.089,0,0,0-2.383-1.68,2,2,0,0,0-1.751,2.266" fill="#263238"/>
        <path id="Path_298034" data-name="Path 298034" d="M71.947,308.751c.307.217,1.634-1.238,3.841-1.668,2.2-.46,4.042.356,4.228.038.094-.143-.26-.574-1.066-.949a5.744,5.744,0,0,0-3.45-.361,5.518,5.518,0,0,0-2.992,1.661c-.575.655-.71,1.184-.561,1.279" fill="#263238"/>
        <path id="Path_298035" data-name="Path 298035" d="M71.753,301.433c.532.415,2.133-.44,4.175-.868,2.028-.492,3.847-.409,4.142-1.012.125-.289-.247-.737-1.1-1.062a6.432,6.432,0,0,0-3.563-.15,6.348,6.348,0,0,0-3.138,1.665c-.622.657-.758,1.22-.518,1.427" fill="#263238"/>
        <path id="Path_298036" data-name="Path 298036" d="M108.024,298.463c-2.431-1.094-4.12-2.8-4.342-5.46-1.424.646-3.193-1.061-4.235-2.228s-2.192-1.67-2.337-3.227a1.752,1.752,0,0,0-.234-.885,1.892,1.892,0,0,0-1.307-.541,7.5,7.5,0,0,1-5.6-4.493,15.839,15.839,0,0,1-7.425,2.292,6.059,6.059,0,0,1-10.22.946,5.426,5.426,0,0,1-3.24,3.148,16.069,16.069,0,0,1-4.563.879,6.416,6.416,0,0,1-3.2,7.771c-.377.175-.817.357-.948.752-.136.411.132.832.34,1.212a5.051,5.051,0,0,1-2.481,6.829,3.766,3.766,0,0,1,.462,5.892c-.369.3-.856.664-.73,1.122a1.069,1.069,0,0,0,.308.439,7.336,7.336,0,0,1,2.249,3.424c.287,1.356-.428,3.018-1.791,3.266a3.581,3.581,0,0,1,1.74,2.235c.149.961-.692,2.076-1.638,1.851-.4-.1-6.071-.426-6.359-.723-3.718-3.829-.416-9.072-.827-14.394s-3.053-11.109-1.042-16.053c.844-2.074,5.635-3.676,6.993-5.456a33.757,33.757,0,0,1,5.482-5.321,30.832,30.832,0,0,1,8.313-5.454c5.789-2.229,12.3-.9,18.233.91a26.334,26.334,0,0,1,6.506,2.727,23.833,23.833,0,0,1,5.979,5.932,29.651,29.651,0,0,1,5.563,10.8" fill="#263238"/>
        <path id="Path_298037" data-name="Path 298037" d="M108.3,293.451a4.276,4.276,0,0,0-.761-1.107c-.285-.337-.676-.72-1.066-1.227a5.192,5.192,0,0,1-.906-1.985,16.368,16.368,0,0,1-.33-2.749,12.271,12.271,0,0,0-.54-3.278,9.352,9.352,0,0,0-1.938-3.291,9.178,9.178,0,0,0-1.58-1.38,13.552,13.552,0,0,0-1.93-1.062,6.931,6.931,0,0,1-1.884-1.22,9.049,9.049,0,0,1-1.338-1.942,15.021,15.021,0,0,0-8.033-6.625,13.329,13.329,0,0,0-2.807-.634,11.984,11.984,0,0,0-2.958.072,13.5,13.5,0,0,0-1.477.325c-.485.144-.959.317-1.437.472a7.246,7.246,0,0,1-2.962.412c-1.019-.059-2.041-.283-3.1-.4a19.711,19.711,0,0,0-6.471.3,17,17,0,0,0-3.168,1.047,11.033,11.033,0,0,0-5.071,4.453l-.335.6.167-.1A12.98,12.98,0,0,0,44.8,285.712l.072-.123a35.732,35.732,0,0,0-3.6,2.587,11.813,11.813,0,0,0-2.779,3.276,7.673,7.673,0,0,0-.913,4.025,5.28,5.28,0,0,0,1.577,3.6l-.016-.186a9.256,9.256,0,0,0-1.765,6.041,9.5,9.5,0,0,0,1.914,5.349,9.032,9.032,0,0,0,.888.994,12.2,12.2,0,0,1,.9.885,2.393,2.393,0,0,1,.545,1.031,6.909,6.909,0,0,1,.128,1.155,18.35,18.35,0,0,0,.7,4.19,8.9,8.9,0,0,0,1.534,3.051,5.47,5.47,0,0,0,1.972,1.559c.625.3,1.151.375,1.461.542a2.736,2.736,0,0,1,.449.278,1.3,1.3,0,0,0-.431-.317c-.309-.182-.838-.273-1.443-.578a5.477,5.477,0,0,1-1.911-1.562,8.823,8.823,0,0,1-1.476-3.018,18.306,18.306,0,0,1-.659-4.155,7,7,0,0,0-.125-1.191,2.6,2.6,0,0,0-.581-1.123,12.155,12.155,0,0,0-.911-.9,9.037,9.037,0,0,1-.858-.974,9.276,9.276,0,0,1-1.84-5.222,9.015,9.015,0,0,1,1.733-5.862l.077-.1-.093-.086a5,5,0,0,1-1.476-3.412,7.381,7.381,0,0,1,.888-3.864,11.529,11.529,0,0,1,2.715-3.181,35.336,35.336,0,0,1,3.575-2.558l.067-.043.005-.08A12.663,12.663,0,0,1,58.34,274.477l.109.009.058-.1c.108-.192.216-.388.325-.582a10.7,10.7,0,0,1,4.918-4.315,16.72,16.72,0,0,1,3.1-1.028,19.546,19.546,0,0,1,3.195-.414,19.262,19.262,0,0,1,3.165.116c1.04.11,2.07.333,3.12.393A7.742,7.742,0,0,0,77.9,268.5a9.232,9.232,0,0,0,1.5-.379c.485-.158.956-.33,1.43-.472a13.619,13.619,0,0,1,1.434-.319,11.733,11.733,0,0,1,2.879-.076,12.975,12.975,0,0,1,2.742.613,14.751,14.751,0,0,1,7.9,6.476,9.326,9.326,0,0,0,1.387,1.987,7.158,7.158,0,0,0,1.955,1.258,13.407,13.407,0,0,1,1.907,1.033,9.016,9.016,0,0,1,1.549,1.338,9.124,9.124,0,0,1,1.918,3.207,12.17,12.17,0,0,1,.559,3.23,16.229,16.229,0,0,0,.362,2.768,5.28,5.28,0,0,0,.955,2.015c.4.508.8.883,1.094,1.211a6.613,6.613,0,0,1,.625.776c.126.187.179.289.187.286" fill="#455a64"/>
        <path id="Path_298038" data-name="Path 298038" d="M63.221,271.153c.02.022.269-.208.771-.547a7.5,7.5,0,0,1,2.318-1.04,7.07,7.07,0,0,1,3.716.025,7.3,7.3,0,0,1,3.732,2.542,6.2,6.2,0,0,1,.725,1.178,1.4,1.4,0,0,1,.081,1.178l-.218.415.43-.189a4.626,4.626,0,0,1,3.483-.067,4.456,4.456,0,0,1,2.164,1.79,4.88,4.88,0,0,1,.686,1.765c.077.442.076.691.1.69s.019-.061.027-.18a3.123,3.123,0,0,0-.015-.526,4.673,4.673,0,0,0-2.858-3.8,4.872,4.872,0,0,0-3.72.032l.211.226a1.708,1.708,0,0,0-.065-1.464,6.4,6.4,0,0,0-.764-1.249,7.494,7.494,0,0,0-3.916-2.636,7.133,7.133,0,0,0-3.863.044,6.985,6.985,0,0,0-2.331,1.163,4.961,4.961,0,0,0-.535.465c-.113.116-.168.18-.16.189" fill="#455a64"/>
        <path id="Path_298039" data-name="Path 298039" d="M42.576,297.461c-.011,0,.008.072.055.2a1.9,1.9,0,0,0,.322.5,2.981,2.981,0,0,0,1.95.939,5.692,5.692,0,0,0,3.117-.783,18.267,18.267,0,0,0,1.654-.932,3.065,3.065,0,0,0,1.337-1.608l.044-.187-.25.115a12.809,12.809,0,0,0,3.561,1.518,5.772,5.772,0,0,0,3.157-.111,4.154,4.154,0,0,0,1.8-1.138,2.54,2.54,0,0,0,.344-.466c.065-.115.094-.178.084-.184-.026-.017-.17.22-.521.56a4.339,4.339,0,0,1-1.775,1,5.7,5.7,0,0,1-3.016.035,13.124,13.124,0,0,1-3.461-1.508l-.2-.114-.055.229c-.011.05-.024.1-.037.157a2.767,2.767,0,0,1-1.2,1.425c-.526.353-1.088.648-1.609.93a5.632,5.632,0,0,1-2.955.822,2.968,2.968,0,0,1-1.876-.792,4.839,4.839,0,0,1-.472-.612" fill="#455a64"/>
        <path id="Path_298040" data-name="Path 298040" d="M59.918,324.3c-.193-1.2-2.026-3.8-3.238-3.8-3.24.008-8.9,1.165-7.677,9.2,1.667,10.984,12.352,7.045,12.323,6.727-.021-.249-.742-7.99-1.408-12.127" fill="#ae7461"/>
        <path id="Path_298041" data-name="Path 298041" d="M57.687,332.877c-.053-.028-.171.163-.472.36a1.934,1.934,0,0,1-1.426.247c-1.225-.25-2.482-1.944-2.836-3.916a6.4,6.4,0,0,1,.12-2.821,2.233,2.233,0,0,1,1.216-1.687.985.985,0,0,1,1.209.352c.194.285.158.516.218.525.035.023.209-.219.051-.659a1.229,1.229,0,0,0-.537-.624,1.462,1.462,0,0,0-1.1-.118,2.719,2.719,0,0,0-1.74,2.006,6.585,6.585,0,0,0-.2,3.163c.406,2.2,1.853,4.1,3.512,4.32a2.072,2.072,0,0,0,1.705-.557c.3-.322.32-.577.279-.591" fill="#6f4439"/>
        <g id="Group_220704" data-name="Group 220704" opacity="0.3">
          <g id="Group_220703" data-name="Group 220703">
            <g id="Group_220702" data-name="Group 220702" clip-path="url(#clip-path-6)">
              <path id="Path_298042" data-name="Path 298042" d="M87.661,311.366a9.385,9.385,0,1,1-10.637-7.938,9.385,9.385,0,0,1,10.637,7.938" fill="#fff"/>
            </g>
          </g>
        </g>
        <g id="Group_220707" data-name="Group 220707" opacity="0.3">
          <g id="Group_220706" data-name="Group 220706">
            <g id="Group_220705" data-name="Group 220705" clip-path="url(#clip-path-7)">
              <path id="Path_298043" data-name="Path 298043" d="M110.543,308.411a9.385,9.385,0,1,1-10.637-7.938,9.385,9.385,0,0,1,10.637,7.938" fill="#fff"/>
            </g>
          </g>
        </g>
        <path id="Path_298044" data-name="Path 298044" d="M91.469,309.783a7.727,7.727,0,0,0-1.857-.047,7.707,7.707,0,0,0-1.7.756c-.043-.033.045-.254.314-.52a2.686,2.686,0,0,1,2.752-.548c.35.142.516.313.489.359" fill="#455a64"/>
        <path id="Path_298045" data-name="Path 298045" d="M69.762,313.582a9.946,9.946,0,0,1-1.753,1.141c-1.11.657-2.658,1.538-4.38,2.487s-3.3,1.788-4.443,2.376a6.311,6.311,0,0,1-1.425.6c-.363.083-.571.058-.572.032s.194-.066.522-.193a9.047,9.047,0,0,0,1.327-.708c1.11-.656,2.658-1.537,4.381-2.487s3.294-1.788,4.442-2.375a9.982,9.982,0,0,1,1.9-.873" fill="#455a64"/>
        <path id="Path_298046" data-name="Path 298046" d="M42.527,413.493S57.1,425.566,87.6,425.391c28.554-.164,46.386-15.613,46.386-15.613,6.069-12.766-.837-21.539-4.07-37.951,0,0-9.556-14.85-12.521-14.975-6.583-.278-18.58,1.843-19.247,1.155-4.323,7.429-9.949,15.064-30.291.448l-23.959,6.218c-3.473,1.462-8.915,5.222-8.567,8.974Z" fill="#ff725e"/>
        <path id="Path_298047" data-name="Path 298047" d="M24.341,399.818s4.133-26.071,16.374-33.392c10.126-6.057,23.316,36.06,23.316,36.06L52.976,419.243c-11.743-5.236-17.666-8.931-28.635-19.425" fill="#ff725e"/>
        <path id="Path_298048" data-name="Path 298048" d="M157.974,338.654l-14.75,4.951,12.024,40.658-19.561-18.2-13.844,27.673s28.519,19.945,39.856,21.5,20.344-3.776,17.836-16.89c-1-5.24-21.561-59.69-21.561-59.69" fill="#ae7461"/>
        <path id="Path_298049" data-name="Path 298049" d="M141.089,324.176s-3.988-4.452-5.981-3.439-4.358,3.637-4.263,5.451.965,3.246,1.747,2.978a13.508,13.508,0,0,0,2.716-2.415l3.685,3.1.039,5.113-2.441,2.173L134.1,334.2l-.2-2.513a1.8,1.8,0,0,0-2.493-1.554,2.2,2.2,0,0,0-1.1,2c-.282,3.311.773,9.383,4.506,11.234a93.508,93.508,0,0,0,10.437,3.949l13.506-4.743-.893-17.117s4.066-7.032,3.829-9.406-1.744-9.458-1.744-9.458a1.714,1.714,0,0,0-2.429,1.377c-.454,2.184.08,8.067.08,8.067L154,320.8l-2.775-18.337a1.4,1.4,0,0,0-1.741-1.148c-1.1.3-2.38,1.229-2.367,3.954.021,4.772,1.594,15.03,1.033,15.173s-.766-.16-1.55-2.518c-.616-1.854-3.58-11-4.65-14.3a1.081,1.081,0,0,0-1.717-.495,4.482,4.482,0,0,0-1.51,3.951c.192,3.878,3.2,13.528,3.363,14.429s-.993,2.666-.993,2.666" fill="#ae7461"/>
        <path id="Path_298050" data-name="Path 298050" d="M149.367,340.124c-.1.055-.446-.47-1.145-1.165a9.417,9.417,0,0,0-6.929-2.73c-.985.031-1.6.176-1.632.071-.027-.071.55-.39,1.59-.552a8.138,8.138,0,0,1,7.33,2.888c.65.828.855,1.454.786,1.488" fill="#6f4439"/>
        <path id="Path_298051" data-name="Path 298051" d="M139.936,410.312l15.018-27.045s-10.6-12.325-19.584-20.192c-9.9-8.662-19.19-7.672-32.5-4.823,0,0,6.856,31.533,20.149,40.777,2.468,1.717,16.915,11.283,16.915,11.283" fill="#ff725e"/>
        <path id="Path_298052" data-name="Path 298052" d="M55.93,419.243a3.319,3.319,0,0,1-.373-1.014,24.53,24.53,0,0,1-.527-2.89c-.33-2.456-.594-5.86-.9-9.611s-.631-7.145-.912-9.6a39.6,39.6,0,0,1-.412-3.976,4.235,4.235,0,0,1,.27,1.043c.147.676.316,1.662.507,2.884.375,2.445.762,5.842,1.066,9.6s.517,7.16.752,9.612c.118,1.225.24,2.213.359,2.888a6.063,6.063,0,0,1,.175,1.058" fill="#263238"/>
        <path id="Path_298053" data-name="Path 298053" d="M118.165,374.294a9.289,9.289,0,0,1,1.268.994c.792.668,1.927,1.647,3.286,2.91,2.669,2.53,6.446,6.2,8.923,11.384a26.061,26.061,0,0,1,2.23,7.689,46.028,46.028,0,0,1,.4,6.515c-.006,1.856-.081,3.354-.14,4.388a9.373,9.373,0,0,1-.151,1.6,9.76,9.76,0,0,1-.052-1.61c0-1.035.015-2.532-.025-4.379a50.671,50.671,0,0,0-.506-6.448,26.466,26.466,0,0,0-2.226-7.537c-2.421-5.075-6.11-8.752-8.706-11.34l-3.167-3.025a9.743,9.743,0,0,1-1.133-1.145" fill="#263238"/>
        <path id="Path_298054" data-name="Path 298054" d="M157.869,397.109a6.363,6.363,0,0,1-.877-1.767,30.444,30.444,0,0,1-2.059-9.256,6.388,6.388,0,0,1,.046-1.972c.158-.007.322,2.984,1.129,6.568.788,3.588,1.907,6.367,1.761,6.427" fill="#263238"/>
      </g>
    </g>
    <g id="Group_220711" data-name="Group 220711">
      <g id="Group_220710" data-name="Group 220710" clip-path="url(#clip-path-2)">
        <path id="Path_298055" data-name="Path 298055" d="M173.262,102.224a81.88,81.88,0,1,1-81.88-81.88,81.88,81.88,0,0,1,81.88,81.88" fill="#fff"/>
        <path id="Path_298056" data-name="Path 298056" d="M107.631,19.645a11.7,11.7,0,0,0-6.844-7.409,11.643,11.643,0,0,0-12.93,4.472c-2.487,3.854-2.025,8.786.3,12.687s6.3,6.882,10.6,9.182l4.038-.441a17.718,17.718,0,0,0,4.835-18.491" fill="#263238"/>
        <path id="Path_298057" data-name="Path 298057" d="M147.208,50.759,88.844,37.507A91.382,91.382,0,0,0,66.3,87.486c22.058,11.879,53.59,20.872,78.513,23.415,5.357-19.124,1.208-40.316,2.394-60.142" fill="#263238"/>
        <path id="Path_298058" data-name="Path 298058" d="M92.412,34.746c8.066-7.423,17.986-10.947,28.871-9.586,6.141.769,8.5,2.4,12.739,4.217a19.539,19.539,0,0,1,9.992,8.853c2.5,4.877,4.421,10.215,4.249,15.69-.177,5.625-.359,11.287-1.564,16.783s-3.507,10.877-7.42,14.921l-14.493.448c-7.851-.843-15.808-1.712-23.166-4.573s-14.175-8-17.307-15.248c-4.352-10.064.032-24.082,8.1-31.505" fill="#263238"/>
        <path id="Path_298059" data-name="Path 298059" d="M128.865,32.4l-4.846-1.272L104.1,35.944A5.3,5.3,0,0,0,98.4,40.3l-6.05,60.139,25.478,11.545,2.791-12.691s12.791.562,18.07-13.759c2.625-7.121,4.644-19.252,5.974-29.231,1.2-8.982-4.716-22.284-15.8-23.9" fill="#ffc09d"/>
        <path id="Path_298060" data-name="Path 298060" d="M116.948,79.072a3.176,3.176,0,0,1,1.363-1.786,3.251,3.251,0,0,1,3.933.332,4.349,4.349,0,0,1,1.064,4.274,3.95,3.95,0,0,1-3.033,1.226,4.682,4.682,0,0,1-.528-.058,3.553,3.553,0,0,1-2.238-1.274,3.164,3.164,0,0,1-.561-2.714" fill="#ff9b6c"/>
        <path id="Path_298061" data-name="Path 298061" d="M137.806,67.711a1.934,1.934,0,0,1-2.209,1.551,1.851,1.851,0,0,1-1.618-2.1,1.935,1.935,0,0,1,2.207-1.552,1.852,1.852,0,0,1,1.62,2.1" fill="#263238"/>
        <path id="Path_298062" data-name="Path 298062" d="M140.524,60.95c-.284.2-1.511-1.148-3.555-1.548-2.035-.428-3.742.325-3.914.031-.087-.133.242-.531.988-.877a5.319,5.319,0,0,1,3.194-.33,5.108,5.108,0,0,1,2.768,1.541c.532.606.657,1.1.519,1.183" fill="#263238"/>
        <path id="Path_298063" data-name="Path 298063" d="M125.013,75.2a13.791,13.791,0,0,1,3.435.06c.532.049,1.047.044,1.205-.294a2.713,2.713,0,0,0-.042-1.614q-.361-2.037-.756-4.274c-1.022-6.073-1.653-11.027-1.408-11.065s1.273,4.853,2.3,10.927q.358,2.243.686,4.284a3.073,3.073,0,0,1-.135,2.1,1.332,1.332,0,0,1-1.008.592,3.576,3.576,0,0,1-.91-.053,13.584,13.584,0,0,1-3.363-.662" fill="#263238"/>
        <path id="Path_298064" data-name="Path 298064" d="M120.589,99.424a38.407,38.407,0,0,1-18.771-9.213s2.587,11.946,17.672,13.5Z" fill="#ff9b6c"/>
        <path id="Path_298065" data-name="Path 298065" d="M118.723,75.422c.336.047-.1,2.262,1.488,4.211s3.993,2.173,3.949,2.486c0,.145-.612.326-1.614.155a5.628,5.628,0,0,1-3.322-1.95,4.9,4.9,0,0,1-1.1-3.5c.1-.943.455-1.443.6-1.4" fill="#263238"/>
        <path id="Path_298066" data-name="Path 298066" d="M140.843,53.648c-.442.43-1.94-.213-3.8-.424-1.85-.27-3.466-.03-3.779-.558-.136-.255.16-.7.893-1.077a5.921,5.921,0,0,1,6.1.792c.609.549.776,1.055.579,1.267" fill="#263238"/>
        <path id="Path_298067" data-name="Path 298067" d="M116.021,63.979a1.933,1.933,0,0,0,1.535,2.22,1.846,1.846,0,0,0,2.243-1.406,1.933,1.933,0,0,0-1.532-2.221,1.85,1.85,0,0,0-2.246,1.407" fill="#263238"/>
        <path id="Path_298068" data-name="Path 298068" d="M112.783,56.2c.2.287,1.815-.552,3.871-.219,2.057.3,3.4,1.6,3.66,1.386.127-.093-.043-.581-.624-1.164a5.317,5.317,0,0,0-2.88-1.418,5.1,5.1,0,0,0-3.13.485c-.711.384-1,.8-.9.93" fill="#263238"/>
        <path id="Path_298069" data-name="Path 298069" d="M114.953,49.786c.33.531,1.994.3,3.9.582,1.919.222,3.472.876,3.922.448.2-.211.021-.719-.615-1.274a5.961,5.961,0,0,0-3.047-1.27,5.884,5.884,0,0,0-3.259.441c-.75.371-1.048.817-.906,1.073" fill="#263238"/>
        <path id="Path_298070" data-name="Path 298070" d="M95.342,61.485l2.2,3.044c12.663-9.084,38.241-32.7,36.8-31.28a32.817,32.817,0,0,0-15.688-3.99c-8.493.234-24.809,2.149-25.952,11.956s2.637,20.27,2.637,20.27" fill="#263238"/>
        <path id="Path_298071" data-name="Path 298071" d="M97.359,65.851c.217-1.1-.544-3.95-1.6-4.336-2.816-1.029-8.1-1.835-9.611,5.53-2.063,10.069,8.479,10.068,8.556,9.783.06-.223,1.91-7.173,2.654-10.977" fill="#ffc09d"/>
        <path id="Path_298072" data-name="Path 298072" d="M92.68,72.579c-.038-.041-.2.087-.525.162a1.8,1.8,0,0,1-1.318-.243c-.985-.608-1.535-2.481-1.211-4.306a5.92,5.92,0,0,1,1-2.411,2.069,2.069,0,0,1,1.6-1.075.913.913,0,0,1,.937.693c.078.31-.028.5.022.526.023.031.251-.125.255-.557a1.139,1.139,0,0,0-.267-.712,1.36,1.36,0,0,0-.919-.456A2.518,2.518,0,0,0,90.1,65.385a6.066,6.066,0,0,0-1.183,2.682c-.352,2.042.3,4.153,1.669,4.873a1.921,1.921,0,0,0,1.66.063c.363-.184.462-.4.431-.424" fill="#ff9b6c"/>
        <path id="Path_298073" data-name="Path 298073" d="M80.838,35.137a6.81,6.81,0,0,0,6.445,3.111A13.63,13.63,0,0,1,77.457,40.3a12.186,12.186,0,0,0,13.7,1.9l4.2-10.138a14.638,14.638,0,0,1-14.519,3.077" fill="#263238"/>
        <path id="Path_298074" data-name="Path 298074" d="M119.8,107.525l-26.46-9.6h-7.1L103.862,117.4l7.472,6.533,9.084-.494,3.913-4.382Z" fill="#ffc09d"/>
        <path id="Path_298075" data-name="Path 298075" d="M148.363,127.775c-2.181-7.233-11.787-12.7-11.787-12.7l-15.924-8.044s-1.182,6.029-11.46,4.107A21.847,21.847,0,0,1,92.569,97.189s-24.286-.154-28.767.556L54.5,185.2l68.631,1.012,5.641-7.718a49.625,49.625,0,0,0,7.456-14.733c1.065-3.487,1.625-6.187,1.625-6.187s12.952-1.034,17.254-6.851c0,0-5.463-18.7-6.743-22.946" fill="#455a64"/>
        <path id="Path_298076" data-name="Path 298076" d="M136.339,127.934c-.1.028.355,1.817.895,4.741a75.953,75.953,0,0,1,.729,23.11c-.355,2.953-.7,4.766-.594,4.788a5,5,0,0,0,.371-1.248c.205-.811.44-2,.675-3.477a63.153,63.153,0,0,0-.734-23.264c-.327-1.46-.637-2.631-.893-3.428a5.012,5.012,0,0,0-.449-1.222" fill="#263238"/>
        <path id="Path_298077" data-name="Path 298077" d="M93.5,172.3a3.85,3.85,0,0,0,1.136-.128,8.706,8.706,0,0,0,1.307-.3,14.578,14.578,0,0,0,1.694-.542,21.782,21.782,0,0,0,4.145-2.071,23.383,23.383,0,0,0,7.747-8.191,21.756,21.756,0,0,0,1.836-4.255,14.377,14.377,0,0,0,.448-1.721,8.87,8.87,0,0,0,.224-1.322,3.842,3.842,0,0,0,.063-1.141c-.126-.019-.308,1.6-1.169,4.04a24.123,24.123,0,0,1-1.917,4.1,24.62,24.62,0,0,1-7.558,7.991,24.121,24.121,0,0,1-3.988,2.144c-2.388.995-3.994,1.267-3.968,1.392" fill="#263238"/>
        <path id="Path_298078" data-name="Path 298078" d="M73.854,97.274l-11.317.293A18.963,18.963,0,0,0,56.831,98.6L28.96,108.266l15.85,15.989,21.349,5Z" fill="#455a64"/>
        <path id="Path_298079" data-name="Path 298079" d="M61.74,111.109c.106,0,.343,4.358.531,9.742s.255,9.751.149,9.755-.343-4.357-.531-9.742-.254-9.751-.149-9.755" fill="#263238"/>
        <path id="Path_298080" data-name="Path 298080" d="M166.277,186.748H23.13A22.872,22.872,0,0,1,.258,163.876v-1.611A22.872,22.872,0,0,1,23.13,139.393H166.277a22.871,22.871,0,0,1,22.872,22.872v1.611a22.871,22.871,0,0,1-22.872,22.872" fill="#fff"/>
        <path id="Path_298081" data-name="Path 298081" d="M166.277,186.748s.379-.037,1.116-.083c.368-.03.828-.035,1.371-.1l1.877-.3c.707-.137,1.478-.375,2.338-.59.421-.139.854-.312,1.309-.477a10.739,10.739,0,0,0,1.4-.581,22.066,22.066,0,0,0,6-4.015,22.968,22.968,0,0,0,5.276-7.306,22.44,22.44,0,0,0,.924-2.363c.27-.82.456-1.686.676-2.556.109-.891.325-1.789.355-2.723s.106-1.879.084-2.856c0-.973-.078-1.951-.136-2.949a24.831,24.831,0,0,0-.549-3,22.561,22.561,0,0,0-6.565-11.161,21.446,21.446,0,0,0-5.871-3.962,22.868,22.868,0,0,0-7.146-2.009c-2.526-.213-5.164-.108-7.834-.13l-16.673.015-36.79.024-84.3.02a23.282,23.282,0,0,0-10.592,2.634,23.225,23.225,0,0,0-8.044,7.166A22.782,22.782,0,0,0,.721,159.37a31.843,31.843,0,0,0-.166,5.3l.066,1.316c.026.437.121.867.178,1.3.073.431.116.868.213,1.294l.325,1.267a22.722,22.722,0,0,0,13.082,14.9,24.2,24.2,0,0,0,9.737,1.747l9.836,0,68.85.056,46.416.083,12.62.049,3.282.025c.738.009,1.117.027,1.117.027s-.379.018-1.117.027l-3.282.026-12.62.048-46.416.083-68.85.056-9.836,0a24.732,24.732,0,0,1-9.929-1.778A23.225,23.225,0,0,1,.845,169.986l-.333-1.3c-.1-.435-.144-.881-.218-1.322-.059-.444-.156-.884-.183-1.331l-.067-1.345A31.988,31.988,0,0,1,.212,159.3a23.269,23.269,0,0,1,3.867-10.146,23.723,23.723,0,0,1,8.226-7.331,23.8,23.8,0,0,1,10.836-2.7l84.3.021,36.79.024,16.673.015c2.676.028,5.287-.073,7.875.149a23.248,23.248,0,0,1,7.261,2.058,21.768,21.768,0,0,1,5.954,4.04,22.423,22.423,0,0,1,4.242,5.351,22.2,22.2,0,0,1,2.386,5.992,24.9,24.9,0,0,1,.547,3.038c.056,1.009.131,2.009.127,2.981.019.972-.047,1.934-.1,2.877s-.256,1.854-.37,2.756c-.225.879-.418,1.754-.695,2.582a22.182,22.182,0,0,1-.945,2.386,23.129,23.129,0,0,1-5.363,7.352,22.1,22.1,0,0,1-6.075,4.007,10.538,10.538,0,0,1-1.412.573c-.461.163-.9.333-1.321.469-.868.207-1.646.439-2.357.568l-1.889.275c-.545.054-1.008.051-1.377.072-.739.029-1.118.03-1.118.03" fill="#263238"/>
        <path id="Path_298082" data-name="Path 298082" d="M31.144,150.308l2.752,5.577a1.483,1.483,0,0,0,1.115.809l6.154.9a1.479,1.479,0,0,1,.82,2.524l-4.453,4.341a1.481,1.481,0,0,0-.426,1.31l1.052,6.129a1.481,1.481,0,0,1-2.148,1.561l-5.5-2.894a1.479,1.479,0,0,0-1.378,0l-5.5,2.894a1.481,1.481,0,0,1-2.148-1.561l1.051-6.129a1.477,1.477,0,0,0-.425-1.31l-4.454-4.341a1.48,1.48,0,0,1,.821-2.524l6.154-.9a1.48,1.48,0,0,0,1.114-.809l2.753-5.577a1.48,1.48,0,0,1,2.654,0" fill="#ff725e"/>
        <path id="Path_298083" data-name="Path 298083" d="M64.22,150.308l2.752,5.577a1.483,1.483,0,0,0,1.115.809l6.154.9a1.479,1.479,0,0,1,.82,2.524l-4.453,4.341a1.481,1.481,0,0,0-.426,1.31l1.052,6.129a1.481,1.481,0,0,1-2.148,1.561l-5.5-2.894a1.477,1.477,0,0,0-1.377,0l-5.5,2.894a1.481,1.481,0,0,1-2.147-1.561l1.051-6.129a1.477,1.477,0,0,0-.425-1.31l-4.454-4.341a1.48,1.48,0,0,1,.821-2.524l6.154-.9a1.48,1.48,0,0,0,1.114-.809l2.752-5.577a1.481,1.481,0,0,1,2.655,0" fill="#ff725e"/>
        <path id="Path_298084" data-name="Path 298084" d="M97.531,150.308l2.752,5.577a1.483,1.483,0,0,0,1.115.809l6.154.9a1.479,1.479,0,0,1,.82,2.524l-4.453,4.341a1.481,1.481,0,0,0-.426,1.31l1.052,6.129a1.481,1.481,0,0,1-2.148,1.561l-5.505-2.894a1.477,1.477,0,0,0-1.377,0l-5.5,2.894a1.481,1.481,0,0,1-2.148-1.561l1.051-6.129a1.477,1.477,0,0,0-.425-1.31l-4.454-4.341a1.48,1.48,0,0,1,.821-2.524l6.154-.9a1.48,1.48,0,0,0,1.114-.809l2.753-5.577a1.48,1.48,0,0,1,2.654,0" fill="#ff725e"/>
        <path id="Path_298085" data-name="Path 298085" d="M127.93,150.308l2.752,5.577a1.483,1.483,0,0,0,1.115.809l6.154.9a1.479,1.479,0,0,1,.82,2.524l-4.453,4.341a1.481,1.481,0,0,0-.426,1.31l1.051,6.129a1.48,1.48,0,0,1-2.147,1.561l-5.505-2.894a1.477,1.477,0,0,0-1.377,0l-5.505,2.894a1.481,1.481,0,0,1-2.147-1.561l1.051-6.129a1.48,1.48,0,0,0-.425-1.31l-4.454-4.341a1.48,1.48,0,0,1,.821-2.524l6.154-.9a1.48,1.48,0,0,0,1.114-.809l2.753-5.577a1.48,1.48,0,0,1,2.654,0" fill="#ff725e"/>
        <path id="Path_298086" data-name="Path 298086" d="M160.642,151.229l2.752,5.577a1.481,1.481,0,0,0,1.115.809l6.154.895a1.479,1.479,0,0,1,.82,2.524l-4.453,4.341a1.481,1.481,0,0,0-.426,1.31l1.052,6.129a1.481,1.481,0,0,1-2.148,1.561l-5.5-2.894a1.477,1.477,0,0,0-1.377,0l-5.5,2.894a1.481,1.481,0,0,1-2.148-1.561l1.051-6.129a1.477,1.477,0,0,0-.425-1.31l-4.454-4.341a1.48,1.48,0,0,1,.821-2.524l6.154-.895a1.477,1.477,0,0,0,1.114-.809l2.753-5.577a1.48,1.48,0,0,1,2.654,0" fill="#e0e0e0"/>
        <path id="Path_298087" data-name="Path 298087" d="M87.9,145.835l3.484-14.872-47.509-8.234-14.057-13.4S18.226,113.6,12.9,119.618c-7.726,8.74-1.142,18.994,4.255,20.432S87.9,145.835,87.9,145.835" fill="#ffc09d"/>
        <path id="Path_298088" data-name="Path 298088" d="M25.285,120.47a2.962,2.962,0,0,1,.757-.085c.489-.031,1.2-.052,2.071-.054a58.941,58.941,0,0,1,6.825.39,50.378,50.378,0,0,1,6.727,1.23c.847.22,1.527.421,1.989.581a2.927,2.927,0,0,1,.709.282c-.018.057-1.059-.228-2.761-.6s-4.069-.807-6.708-1.114-5.044-.438-6.785-.5a27.727,27.727,0,0,1-2.824-.131" fill="#ff9b6c"/>
        <path id="Path_298089" data-name="Path 298089" d="M83.646,129.972c2.378-.237,10.9,1.116,14.5,2.511,5.817,2.261,8.276,4.784,12.667,5.458s9.579-.075,9.454,2.325-9.7,3.644-9.7,3.644,11.654,13.5,10.2,15.437a2.7,2.7,0,0,1-3.8-.313c-3.11-3.209-7.347-7.644-7.347-7.644s.593,10.7-1.535,12.829a2.913,2.913,0,0,1-4.057.486,3.11,3.11,0,0,1-3.456,1.254c-1.432-.4-1.923-2.391-1.923-2.391s-2.46.571-3.3-2.419c-.793-2.825-2.091-11.643-2.091-11.643s-7.089-3.912-7.383-3.589l-8.857-.825-1.083-13.133Z" fill="#ffc09d"/>
        <path id="Path_298090" data-name="Path 298090" d="M104.759,149.934a10.007,10.007,0,0,1,.282,2.161,44.758,44.758,0,0,1,.045,5.259,43.733,43.733,0,0,1-.555,5.23,9.874,9.874,0,0,1-.495,2.122,16.234,16.234,0,0,1,.228-2.161c.162-1.329.341-3.17.44-5.21s.1-3.888.067-5.227a16.013,16.013,0,0,1-.012-2.174" fill="#ff9b6c"/>
        <path id="Path_298091" data-name="Path 298091" d="M98.451,150.117a8.3,8.3,0,0,1,.5,1.957,29.227,29.227,0,0,1,.093,9.715,8.3,8.3,0,0,1-.459,1.966,14.52,14.52,0,0,1,.191-2,39.913,39.913,0,0,0-.092-9.638,14.485,14.485,0,0,1-.23-2" fill="#ff9b6c"/>
        <path id="Path_298092" data-name="Path 298092" d="M107.4,139.97a13.666,13.666,0,0,1,3.685,4.552,16.851,16.851,0,0,1-1.893-2.235,16.816,16.816,0,0,1-1.792-2.317" fill="#ff9b6c"/>
        <path id="Path_298093" data-name="Path 298093" d="M169.507,148.836a6.9,6.9,0,0,0,.7-2.922,34.351,34.351,0,0,1,.408-3.886l.279-6.445a2.886,2.886,0,0,0-5.314-.311c-.35-.9-.263-1.442-1.04-2.02a3.082,3.082,0,0,0-2.743-.54,2.206,2.206,0,0,0-1.532,2.207,3.587,3.587,0,0,0-6.032.188,3.759,3.759,0,0,0-.488,1.241,1.49,1.49,0,0,0-.064.5.608.608,0,0,0,.09.215c.188.312.425.583.594.91.063.123.122.249.176.376a6.809,6.809,0,0,1,.471,1.823,5.924,5.924,0,0,0,.088.886,3.343,3.343,0,0,0,.272.511,8.94,8.94,0,0,1,.517,3.652,7.03,7.03,0,0,0,.884,3.895c.764,1.114,2.439,1.711,3.508.885a1.768,1.768,0,0,0,1.422,1.858,2.555,2.555,0,0,0,2.315-.853,4.75,4.75,0,0,0,1.061-2.316,1.953,1.953,0,0,0,2.041,1.784,3.008,3.008,0,0,0,2.388-1.642" fill="#ffc09d"/>
        <path id="Path_298094" data-name="Path 298094" d="M150.2,135.748a2.9,2.9,0,0,0-2.253.882,4.753,4.753,0,0,0-.55,3.216c1.165.157,1.764.17,2.928.327.245.033.446-.039.654.094.552.35.532,1.626.779,2.231a2.221,2.221,0,0,0,2.864,1.051,2.977,2.977,0,0,0,1.658-2.745,4.6,4.6,0,0,0-1.333-3.04,6.438,6.438,0,0,0-4.747-2.016" fill="#ffc09d"/>
        <path id="Path_298095" data-name="Path 298095" d="M160.262,134.585c.217,0,.4,3.451.4,7.707S160.5,150,160.281,150s-.4-3.45-.4-7.707.166-7.708.383-7.708" fill="#ff9b6c"/>
        <path id="Path_298096" data-name="Path 298096" d="M165.6,135.039c.206-.02.652,3.107.516,6.987s-.78,6.971-.984,6.937c-.224-.033.078-3.134.2-6.964s.043-6.942.268-6.96" fill="#ff9b6c"/>
        <path id="Path_298097" data-name="Path 298097" d="M151.893,136.2c-.011-.093.542-.246,1.358.077a4.339,4.339,0,0,1,2.25,2.369,8.708,8.708,0,0,1,.693,3.147c-.045.96-.723,1.274-.746,1.151-.065-.084.293-.433.192-1.139a15.7,15.7,0,0,0-.856-2.844A4.711,4.711,0,0,0,153,136.772c-.622-.391-1.114-.452-1.109-.572" fill="#ff9b6c"/>
      </g>
    </g>
    <g id="Group_220713" data-name="Group 220713">
      <g id="Group_220712" data-name="Group 220712" clip-path="url(#clip-path-2)">
        <path id="Path_298098" data-name="Path 298098" d="M392.611,241.918l5.971,1.323a23.322,23.322,0,1,0-3.737-7.474l-.007-.011Z" fill="#fff"/>
        <path id="Path_298099" data-name="Path 298099" d="M392.611,241.918s.035-.128.124-.391c.1-.283.231-.674.4-1.178.375-1.072.916-2.622,1.615-4.624a.091.091,0,0,1,.114-.055.1.1,0,0,1,.048.039l.007.011-.164.072a23.2,23.2,0,0,1-.516-11.249,23.977,23.977,0,0,1,2.615-6.973,23.412,23.412,0,0,1,5.471-6.459,23.915,23.915,0,0,1,8.279-4.354,22.946,22.946,0,0,1,10.088-.726,23.982,23.982,0,0,1,9.99,3.991,22.987,22.987,0,0,1,7.394,8.506,24.131,24.131,0,0,1,2.015,5.44c.175.942.365,1.882.466,2.824l.1,1.418.044.7-.026.705a23.92,23.92,0,0,1-2.686,10.53,22.884,22.884,0,0,1-6.627,7.763,23.959,23.959,0,0,1-8.5,4.078,23.493,23.493,0,0,1-8.5.534l-1.952-.334c-.637-.125-1.244-.327-1.85-.483a21.032,21.032,0,0,1-3.372-1.282,23.182,23.182,0,0,1-8.672-7.132l.051.033-4.447-1.038-1.134-.272a3.267,3.267,0,0,1-.371-.1s.146.022.41.075l1.164.237,4.416.926a.088.088,0,0,1,.051.033,23.237,23.237,0,0,0,8.653,6.98,20.979,20.979,0,0,0,3.338,1.245c.6.149,1.2.346,1.828.465l1.926.319a23.255,23.255,0,0,0,8.372-.564,23.634,23.634,0,0,0,8.35-4.041,22.532,22.532,0,0,0,6.493-7.64,23.548,23.548,0,0,0,2.623-10.34l.025-.691-.044-.692-.1-1.391c-.1-.925-.286-1.847-.459-2.771a23.715,23.715,0,0,0-1.977-5.338,22.605,22.605,0,0,0-7.251-8.349,23.623,23.623,0,0,0-9.8-3.931,22.588,22.588,0,0,0-9.912.692,23.6,23.6,0,0,0-8.158,4.256,23.148,23.148,0,0,0-5.417,6.337,23.781,23.781,0,0,0-2.622,6.866,23.252,23.252,0,0,0,.408,11.141.089.089,0,0,1-.06.112.091.091,0,0,1-.1-.04l-.007-.011.162-.016c-.734,1.963-1.3,3.484-1.7,4.535-.193.507-.343.9-.451,1.185-.1.268-.166.411-.166.411" fill="#263238"/>
        <path id="Path_298100" data-name="Path 298100" d="M410.5,229.253a2.964,2.964,0,1,1-2.964-2.964,2.964,2.964,0,0,1,2.964,2.964" fill="#263238"/>
        <path id="Path_298101" data-name="Path 298101" d="M420.475,229.253a2.964,2.964,0,1,1-2.964-2.964,2.964,2.964,0,0,1,2.964,2.964" fill="#263238"/>
        <path id="Path_298102" data-name="Path 298102" d="M430.449,229.253a2.964,2.964,0,1,1-2.964-2.964,2.964,2.964,0,0,1,2.964,2.964" fill="#263238"/>
      </g>
    </g>
    <rect id="Rectangle_86037" data-name="Rectangle 86037" width="92.806" height="78.636" transform="translate(171.401 207.19)" fill="#fff"/>
    <rect id="Rectangle_86038" data-name="Rectangle 86038" width="92.806" height="8.641" transform="translate(171.401 207.191)" fill="#e0e0e0"/>
    <g id="Group_220715" data-name="Group 220715">
      <g id="Group_220714" data-name="Group 220714" clip-path="url(#clip-path-2)">
        <path id="Path_298103" data-name="Path 298103" d="M178.293,211.662a1.9,1.9,0,1,1-1.9-1.9,1.9,1.9,0,0,1,1.9,1.9" fill="#fff"/>
        <path id="Path_298104" data-name="Path 298104" d="M183.4,211.662a1.9,1.9,0,1,1-1.9-1.9,1.9,1.9,0,0,1,1.9,1.9" fill="#fff"/>
        <path id="Path_298105" data-name="Path 298105" d="M188.515,211.662a1.9,1.9,0,1,1-1.9-1.9,1.9,1.9,0,0,1,1.9,1.9" fill="#fff"/>
        <rect id="Rectangle_86039" data-name="Rectangle 86039" width="92.806" height="27" transform="translate(171.401 222.244)" fill="#ff725e"/>
        <rect id="Rectangle_86040" data-name="Rectangle 86040" width="14.229" height="14.229" transform="translate(178.69 259.009)" fill="#455a64"/>
        <path id="Path_298106" data-name="Path 298106" d="M204.365,261.529h-7.672a1.26,1.26,0,1,1,0-2.52h7.672a1.26,1.26,0,1,1,0,2.52" fill="#e0e0e0"/>
        <path id="Path_298107" data-name="Path 298107" d="M201.551,271.683H197.5a1.26,1.26,0,0,1,0-2.52h4.054a1.26,1.26,0,0,1,0,2.52" fill="#ff725e"/>
        <path id="Path_298108" data-name="Path 298108" d="M212.82,266.123H196.849a1.26,1.26,0,1,1,0-2.52H212.82a1.26,1.26,0,1,1,0,2.52" fill="#e0e0e0"/>
        <rect id="Rectangle_86041" data-name="Rectangle 86041" width="14.228" height="14.229" transform="translate(222.833 259.009)" fill="#455a64"/>
        <path id="Path_298109" data-name="Path 298109" d="M248.507,261.529h-7.672a1.26,1.26,0,1,1,0-2.52h7.672a1.26,1.26,0,1,1,0,2.52" fill="#e0e0e0"/>
        <path id="Path_298110" data-name="Path 298110" d="M245.693,271.683h-4.054a1.26,1.26,0,0,1,0-2.52h4.054a1.26,1.26,0,0,1,0,2.52" fill="#ff725e"/>
        <path id="Path_298111" data-name="Path 298111" d="M256.962,266.123H240.991a1.26,1.26,0,1,1,0-2.52h15.971a1.26,1.26,0,0,1,0,2.52" fill="#e0e0e0"/>
        <rect id="Rectangle_86042" data-name="Rectangle 86042" width="92.806" height="3.804" transform="translate(171.401 282.022)" fill="#e0e0e0"/>
        <path id="Path_298112" data-name="Path 298112" d="M219.018,232.851H182.04a1.634,1.634,0,0,1,0-3.269h36.978a1.634,1.634,0,0,1,0,3.269" fill="#fff"/>
        <path id="Path_298113" data-name="Path 298113" d="M191.794,238.952h-9.222a1.634,1.634,0,1,1,0-3.268h9.222a1.634,1.634,0,1,1,0,3.268" fill="#fff"/>
        <path id="Path_298114" data-name="Path 298114" d="M259.783,229.229H258.8a1.634,1.634,0,0,1,0-3.269h.984a1.634,1.634,0,1,1,0,3.269" fill="#fff"/>
        <path id="Path_298115" data-name="Path 298115" d="M253.4,229.229h-.983a1.634,1.634,0,1,1,0-3.269h.983a1.634,1.634,0,1,1,0,3.269" fill="#fff"/>
        <path id="Path_298116" data-name="Path 298116" d="M264.207,285.827s-.016-.505-.024-1.459-.014-2.375-.025-4.209c-.013-3.69-.033-9.081-.057-15.951-.027-13.733-.066-33.362-.113-57.017l.219.219-92.8.042H171.4l.26-.261c-.01,28.51-.02,55.391-.029,78.636l-.231-.231,67.072.116,18.963.061,5.026.027,1.3.014c.293,0,.448.013.448.013s-.138.009-.421.013l-1.272.013-4.981.028-18.911.061-67.221.116h-.231v-.231c-.009-23.245-.019-50.126-.03-78.636v-.26h.269l92.8.041h.219v.219c-.047,23.712-.086,43.389-.113,57.155-.025,6.848-.044,12.223-.057,15.9-.011,1.816-.019,3.211-.025,4.167-.008.94-.024,1.412-.024,1.412" fill="#263238"/>
      </g>
    </g>
  </g>
</svg>
