<svg xmlns="http://www.w3.org/2000/svg" width="51" height="56" viewBox="0 0 51 56">
  <g id="Group_221144" data-name="Group 221144" transform="translate(-430 -1062)">
    <rect id="Rectangle_49100" data-name="Rectangle 49100" width="51" height="56" rx="8" transform="translate(430 1062)" fill="#dbfff9"/>
    <g id="noun-ship-2163410" transform="translate(434.5 1068.246)">
      <path id="Path_297040" data-name="Path 297040" d="M81.962,104.755a1.866,1.866,0,1,0-1.869-1.869A1.868,1.868,0,0,0,81.962,104.755Zm0-3.24a1.374,1.374,0,1,1-1.377,1.371A1.373,1.373,0,0,1,81.962,101.515Z" transform="translate(-56.609 -71.633)" fill="#022b5c" stroke="#022b5c" stroke-width="0.5"/>
      <path id="Path_297041" data-name="Path 297041" d="M35.307,104.755a1.866,1.866,0,1,0-1.869-1.869A1.868,1.868,0,0,0,35.307,104.755Zm0-3.24a1.374,1.374,0,1,1-1.377,1.371A1.373,1.373,0,0,1,35.307,101.515Z" transform="translate(-21.438 -71.633)" fill="#022b5c" stroke="#022b5c" stroke-width="0.5"/>
      <path id="Path_297042" data-name="Path 297042" d="M36.817,15.908l-1.7-.448a5.647,5.647,0,0,0-.608-1.468l.882-1.518a.246.246,0,0,0-.039-.3l-1.047-1.045a.246.246,0,0,0-.3-.039l-1.514.882a5.611,5.611,0,0,0-1.47-.61L30.58,9.669a.246.246,0,0,0-.238-.183h-1.48a.246.246,0,0,0-.238.183l-.448,1.695a5.614,5.614,0,0,0-1.47.61l-1.11-.648V6.246A.246.246,0,0,0,25.349,6H13.573a.246.246,0,0,0-.246.246v8.448H9.608a.246.246,0,0,0-.246.246v6.75L5.155,23.364a.246.246,0,0,0-.138.319l1.162,2.958v0l4.075,10.371H5.246a.246.246,0,1,0,0,.492H33.828a.246.246,0,1,0,0-.492h-5.1l5.332-13.331a.246.246,0,0,0-.14-.321l-2.654-1.028A5.617,5.617,0,0,0,32.5,21.8l1.516.883a.245.245,0,0,0,.3-.039l1.047-1.047a.246.246,0,0,0,.039-.3l-.882-1.518a5.648,5.648,0,0,0,.608-1.468l1.7-.447A.246.246,0,0,0,37,17.625v-1.48A.246.246,0,0,0,36.817,15.908Zm-15.7-9.415H25.1v1.2H21.112Zm-2.809,0H20.62V9.526h-.738a.246.246,0,0,0-.246.246v.144h-.677a.246.246,0,0,0-.246.246v.1H18.3Zm-4.483,0h3.991v1.2H13.82Zm0,1.691h3.991v2.328a.246.246,0,0,0,.246.246h.9a.246.246,0,0,0,.246-.246v-.1h.677a.246.246,0,0,0,.246-.246v-.144h.738a.246.246,0,0,0,.246-.246V8.183H25.1v2.878a.245.245,0,0,0-.209.068l-1.047,1.047a.246.246,0,0,0-.039.3l.882,1.517a5.616,5.616,0,0,0-.352.7H13.82ZM19.1,37.015H10.785L6.728,26.691,19.1,21.8Zm0-15.747L6.548,26.233l-.983-2.5L19.1,18.346Zm.156-3.514,0,0h0l-9.4,3.738V15.187H24.162c-.028.09-.057.181-.08.273l-1.7.447a.246.246,0,0,0-.183.238v1.48a.246.246,0,0,0,.183.238l1.7.448a5.621,5.621,0,0,0,.608,1.469l0,.008-5.248-2.033A.246.246,0,0,0,19.257,17.754ZM28.2,37.015h-8.6V21.794l12.731,4.9Zm5.313-13.283-1,2.5L19.594,21.267V18.342l4.841,1.876L23.808,21.3a.246.246,0,0,0,.039.3l1.047,1.045a.247.247,0,0,0,.3.039l1.514-.882a5.609,5.609,0,0,0,1.47.61l.448,1.7a.246.246,0,0,0,.238.183h1.48a.246.246,0,0,0,.238-.183l.36-1.363Zm3-6.3-1.653.435a.246.246,0,0,0-.177.183,5.165,5.165,0,0,1-.659,1.59.246.246,0,0,0,0,.254l.86,1.48-.779.779L32.617,21.3a.246.246,0,0,0-.255,0,5.13,5.13,0,0,1-1.59.66.246.246,0,0,0-.183.177l-.437,1.654h-1.1l-.437-1.654a.246.246,0,0,0-.183-.177,5.125,5.125,0,0,1-1.591-.66.246.246,0,0,0-.255,0l-1.477.86-.779-.778.86-1.48a.246.246,0,0,0,0-.255,5.128,5.128,0,0,1-.659-1.59.246.246,0,0,0-.177-.183L22.7,17.434v-1.1l1.653-.435a.246.246,0,0,0,.177-.183,5.131,5.131,0,0,1,.659-1.59.246.246,0,0,0,0-.255l-.86-1.48.779-.779,1.477.862a.246.246,0,0,0,.255,0,5.123,5.123,0,0,1,1.592-.66.246.246,0,0,0,.183-.177l.437-1.653h1.1l.437,1.653a.246.246,0,0,0,.183.177,5.123,5.123,0,0,1,1.592.66.247.247,0,0,0,.255,0l1.477-.86.779.778-.86,1.48a.246.246,0,0,0,0,.254,5.164,5.164,0,0,1,.659,1.59.246.246,0,0,0,.177.183l1.654.437Z" fill="#022b5c" stroke="#022b5c" stroke-width="0.5"/>
      <path id="Path_297043" data-name="Path 297043" d="M94.96,36.975a3.26,3.26,0,1,0,3.26,3.26A3.264,3.264,0,0,0,94.96,36.975Zm0,6.028a2.768,2.768,0,1,1,2.768-2.768A2.771,2.771,0,0,1,94.96,43Z" transform="translate(-65.359 -23.35)" fill="#022b5c" stroke="#022b5c" stroke-width="0.5"/>
    </g>
  </g>
</svg>
