<svg xmlns="http://www.w3.org/2000/svg" width="242.074" height="51.167" viewBox="0 0 242.074 51.167">
  <path id="shipKRATE_Logo" d="M13.284,14.765a15.38,15.38,0,0,1-6.234-1.2,10.647,10.647,0,0,1-4.316-3.285A8.64,8.64,0,0,1,.96,5.606h8.1A3.116,3.116,0,0,0,10.359,7.86a4.581,4.581,0,0,0,2.829.863,4.038,4.038,0,0,0,2.374-.6A1.836,1.836,0,0,0,16.4,6.565a1.8,1.8,0,0,0-1.2-1.7A24.219,24.219,0,0,0,11.318,3.64a36.468,36.468,0,0,1-4.8-1.415A8.285,8.285,0,0,1,3.214-.125a6.4,6.4,0,0,1-1.391-4.34,7.369,7.369,0,0,1,1.271-4.2,8.556,8.556,0,0,1,3.74-3,14.323,14.323,0,0,1,5.874-1.1q5.035,0,7.936,2.494a9.7,9.7,0,0,1,3.333,6.618H16.4a3.266,3.266,0,0,0-1.223-2.206,4.241,4.241,0,0,0-2.709-.815,3.746,3.746,0,0,0-2.206.551A1.761,1.761,0,0,0,9.5-4.608a1.844,1.844,0,0,0,1.223,1.726,19.585,19.585,0,0,0,3.812,1.151A41.707,41.707,0,0,1,19.374-.221a8.355,8.355,0,0,1,3.285,2.4,6.784,6.784,0,0,1,1.463,4.436,7.04,7.04,0,0,1-1.319,4.2,8.722,8.722,0,0,1-3.788,2.9A14.488,14.488,0,0,1,13.284,14.765Zm32.321-27.43A9.52,9.52,0,0,1,52.99-9.62q2.781,3.045,2.781,8.368V14.381H47.62V-.149a5.873,5.873,0,0,0-1.391-4.172,4.876,4.876,0,0,0-3.74-1.487,4.876,4.876,0,0,0-3.74,1.487A5.873,5.873,0,0,0,37.357-.149v14.53h-8.2V-21.1h8.2V-8.781a8.765,8.765,0,0,1,3.4-2.829A10.882,10.882,0,0,1,45.606-12.665Zm20-2.494a4.97,4.97,0,0,1-3.525-1.271,4.118,4.118,0,0,1-1.367-3.141,4.171,4.171,0,0,1,1.367-3.189A4.97,4.97,0,0,1,65.6-24.03a4.9,4.9,0,0,1,3.477,1.271,4.171,4.171,0,0,1,1.367,3.189,4.118,4.118,0,0,1-1.367,3.141A4.9,4.9,0,0,1,65.6-15.158Zm4.076,2.781V14.381h-8.2V-12.377ZM83.825-8.589a8.9,8.9,0,0,1,3.309-3.021,10.157,10.157,0,0,1,4.939-1.151,11.08,11.08,0,0,1,5.994,1.678,11.625,11.625,0,0,1,4.244,4.8A15.992,15.992,0,0,1,103.87.954a16.144,16.144,0,0,1-1.559,7.265,11.764,11.764,0,0,1-4.244,4.843,10.964,10.964,0,0,1-5.994,1.7,10.193,10.193,0,0,1-4.915-1.151,9.011,9.011,0,0,1-3.333-2.973v16.5h-8.2V-12.377h8.2ZM95.526.954a6.619,6.619,0,0,0-1.7-4.819,5.623,5.623,0,0,0-4.2-1.75A5.531,5.531,0,0,0,85.48-3.841,6.7,6.7,0,0,0,83.777,1a6.7,6.7,0,0,0,1.7,4.843A5.531,5.531,0,0,0,89.628,7.62a5.572,5.572,0,0,0,4.172-1.8A6.734,6.734,0,0,0,95.526.954Zm31.506,13.427L113.269-.868V14.381h-4.364V-19.043h4.364V-3.553L127.08-19.043h5.515L117.441-2.307l15.3,16.688Zm28.2,0L147.269.714h-5.275V14.381H137.63V-19.043h10.79a14.325,14.325,0,0,1,6.4,1.295,9.016,9.016,0,0,1,3.908,3.5,9.76,9.76,0,0,1,1.295,5.035,9.836,9.836,0,0,1-1.99,6.09,9.725,9.725,0,0,1-5.97,3.5l8.392,14ZM141.994-2.786h6.426a7.291,7.291,0,0,0,5.323-1.75,6.272,6.272,0,0,0,1.774-4.676,5.982,5.982,0,0,0-1.75-4.6q-1.75-1.63-5.347-1.63h-6.426Zm44.55,9.735H171.965l-2.685,7.433h-4.6l12.085-33.232H181.8l12.037,33.232h-4.6ZM185.3,3.4l-6.042-16.88L173.212,3.4ZM219.68-19.043v3.549h-9.111V14.381H206.2V-15.494h-9.159v-3.549Zm9.735,3.549V-4.321H241.6v3.6h-12.18V10.785h13.619v3.6H225.051V-19.091h17.983v3.6Z" transform="translate(-0.96 24.03)" fill="#472078"/>
</svg>
